<svg width="24" height="24" viewBox="0 0 24 24" aria-hidden="true"><path fill="currentColor" fill-rule="evenodd" d="M18.338 18.338H15.67v-4.177c0-.997-.018-2.278-1.387-2.278-1.39 0-1.602 1.085-1.602 2.206v4.25h-2.668v-8.59h2.561v1.173h.036c.356-.675 1.227-1.388 2.526-1.388 2.703 0 3.202 1.78 3.202 4.092v4.712ZM7.004 8.574a1.548 1.548 0 1 1 0-3.097 1.548 1.548 0 0 1 0 3.097ZM5.67 18.338h2.67v-8.59h-2.67v8.59ZM19.668 3H4.328C3.597 3 3 3.581 3 4.297v15.404C3 20.418 3.596 21 4.329 21h15.339c.734 0 1.332-.582 1.332-1.299V4.297C21 3.581 20.402 3 19.668 3Z"></path></svg>