<svg
      width="36"
      height="24"
      viewBox="0 0 36 24"
      fill="none"
      xmlns="http://www.w3.org/2000/svg"
    >
      <path
        fill-rule="evenodd"
        clip-rule="evenodd"
        d="M19.6738 9.87152C19.6738 9.87152 20.4674 9.29208 21.2283 8.01701C21.9893 6.74216 24.4913 3.46496 26.1508 1.95436C27.8103 0.443539 29.4963 -0.533138 30.3887 0.497087C31.2809 1.52709 32.0362 2.51726 32.6593 3.60135C33.2824 4.68558 33.8149 5.84907 33.7048 6.24047C33.5947 6.63202 33.0059 7.3737 32.7035 7.62713C32.401 7.8807 30.8052 8.68466 30.8052 8.68466C30.8052 8.68466 32.9528 8.81778 33.9675 9.1802C34.9824 9.54262 35.4774 9.55961 35.5775 10.4673C35.6775 11.3749 35.8289 12.0467 35.7952 12.9796C35.7617 13.9129 35.9782 14.2176 35.175 14.6495C34.3716 15.0815 31.8601 15.4793 31.6996 15.3595C31.539 15.2395 32.3567 16.04 33.4554 16.6005C34.554 17.1608 35.2322 17.675 35.3434 18.0525C35.4548 18.4299 35.1713 18.668 35.3949 19.0454C35.6184 19.4228 35.5385 19.9019 34.9643 20.8599C34.3903 21.8178 34.4023 22.2863 33.8846 22.6202C33.3667 22.9539 32.6598 22.9965 32.4505 23.006C32.241 23.0153 29.564 22.5828 26.8528 20.6642C24.1416 18.7458 23.036 18.3973 22.3022 17.5843C21.5684 16.7713 19.9441 15.2607 19.9441 15.2607C19.9441 15.2607 19.3434 15.7385 17.928 15.8969C16.5126 16.0553 15.6887 15.8159 15.5888 15.6377C15.4891 15.4597 14.7398 15.8012 14.427 16.1039C14.1144 16.4066 10.643 18.5233 9.04484 19.3744C7.44663 20.2254 7.56496 20.4088 6.5741 20.8822C5.58302 21.3559 5.62891 21.3697 4.99501 21.1336C4.36096 20.8975 2.76003 19.7346 2.52178 18.6587C2.28367 17.5828 2.44493 17.24 3.02877 16.6476C3.6126 16.0552 4.78202 15.012 4.78202 15.012C4.78202 15.012 4.04314 15.1199 2.94958 15.1294C1.85586 15.1386 0.645263 14.991 0.586098 14.4462C0.526933 13.9015 0.117712 12.7979 0.213665 11.4861C0.309239 10.1741 0.183248 9.52677 0.552649 9.37969C0.922201 9.23239 4.93213 8.3462 4.93213 8.3462C4.93213 8.3462 4.96073 8.14482 4.23437 7.93388C3.50801 7.72286 1.88545 6.50573 1.53084 6.18002C1.17638 5.85431 1.43413 5.4287 1.50695 5.04368C1.57976 4.65865 2.4749 3.36393 3.06617 2.47539C3.65744 1.58701 4.59353 0.179272 5.25397 0.442328C5.91442 0.705232 7.58855 1.48802 8.67969 2.50907C9.77067 3.53019 12.0352 5.79514 12.9956 7.09897C13.9559 8.40279 15.231 9.86409 15.231 9.86409C15.231 9.86409 16.028 9.36582 16.9349 9.07872C17.842 8.79146 18.7725 9.15806 19.0472 9.31864C19.3219 9.47906 19.6738 9.87152 19.6738 9.87152Z"
        fill="#FF87AB"
      />
      <path
        fill-rule="evenodd"
        clip-rule="evenodd"
        d="M15.654 14.9886C15.7192 15.0575 15.7178 15.1662 15.6505 15.2339C15.5819 15.3025 15.4703 15.3025 15.4018 15.2339C15.3734 15.2055 15.3443 15.1632 15.3192 15.1053C15.2824 15.0198 15.2499 14.8871 15.2241 14.7209C15.0918 13.8702 15.1027 12.0571 15.0939 11.7453C15.0888 11.571 15.0371 10.2603 15.0507 9.97091C15.0552 9.86992 15.0934 9.81567 15.1039 9.80422C15.1441 9.76069 15.1903 9.74708 15.2333 9.74708C15.2722 9.74673 15.3161 9.75681 15.3577 9.79699C15.3679 9.80668 15.4081 9.85319 15.4241 9.96105C15.4305 10.0037 15.4211 10.0453 15.4 10.0789C15.397 10.4811 15.4409 11.5772 15.4451 11.7345C15.4532 12.0044 15.4448 13.4104 15.5302 14.3207C15.5514 14.5445 15.5776 14.7373 15.6122 14.8718C15.6257 14.923 15.6519 14.984 15.654 14.9886Z"
        fill="#87425F"
      />
      <path
        fill-rule="evenodd"
        clip-rule="evenodd"
        d="M15.4421 10.1016C15.6689 9.74544 16.243 9.51245 16.6255 9.33604C17.0231 9.1524 17.6211 9.08169 18.1651 9.15588C18.5167 9.20364 18.8466 9.31116 19.0787 9.49674C19.1087 9.52089 19.1265 9.55507 19.1431 9.59067C19.1697 9.64865 19.1901 9.71209 19.2141 9.77078C19.2611 9.88798 19.3231 9.99038 19.4204 10.0551C19.7292 10.2611 20.0634 10.5639 20.1124 10.956C20.2178 11.7989 19.9517 12.6216 20.0015 13.4718C20.0287 13.9304 20.0287 14.2848 19.9834 14.5627C19.9432 14.8077 19.8688 14.9873 19.7372 15.1214C19.6006 15.2601 19.4067 15.3493 19.1462 15.4235C18.8562 15.5056 18.4888 15.5652 18.0278 15.6311C17.6193 15.6894 17.0912 15.8163 16.6006 15.8193C16.1662 15.8223 15.7595 15.7301 15.5302 15.3486C15.4801 15.2652 15.3719 15.2382 15.2885 15.2881C15.2052 15.338 15.1782 15.4464 15.2285 15.5295C15.4692 15.931 15.8514 16.106 16.2883 16.1555C16.8755 16.2223 17.5666 16.0525 18.0775 15.9797C19.0731 15.8371 19.6594 15.7017 19.9876 15.3681C20.3214 15.0288 20.4126 14.4744 20.3525 13.4512C20.3018 12.5934 20.5674 11.7626 20.4613 10.9125C20.3995 10.4197 20.0033 10.0209 19.6154 9.76252C19.5897 9.7456 19.5752 9.71776 19.5613 9.68886C19.5352 9.63475 19.5153 9.57342 19.4924 9.51455C19.4476 9.4007 19.39 9.29582 19.2978 9.2218C19.0213 9.00062 18.6312 8.86407 18.212 8.80732C17.599 8.72396 16.9258 8.80979 16.4775 9.01669C16.0418 9.2176 15.4031 9.50699 15.1446 9.91251C15.0926 9.99411 15.1166 10.1034 15.1987 10.1554C15.2812 10.2072 15.3901 10.1832 15.4421 10.1016Z"
        fill="#87425F"
      />
      <path
        fill-rule="evenodd"
        clip-rule="evenodd"
        d="M20.829 11.4352C20.8317 11.4724 20.8223 11.511 20.7998 11.5448C20.746 11.6256 20.6366 11.6472 20.5557 11.5935C20.4956 11.5533 20.4674 11.5043 20.455 11.4569C20.4411 11.4031 20.4457 11.3444 20.4816 11.2831C20.5167 11.2244 20.6128 11.1435 20.7688 11.0678C21.5255 10.7003 23.95 10.1152 24.1678 10.0666C26.7277 9.49768 29.3381 8.46348 31.6282 7.19121C32.1079 6.92474 32.607 6.7903 32.994 6.63204C33.2339 6.53387 33.4294 6.43498 33.5176 6.25856C33.6065 6.08127 33.5768 5.83949 33.42 5.47362C33.0976 4.72109 31.9045 2.6092 30.8378 1.33306C30.5708 1.01371 30.3124 0.747618 30.078 0.572085C29.9409 0.46969 29.8154 0.398664 29.7016 0.375753C29.2545 0.286577 28.7384 0.444665 28.2312 0.700563C27.4288 1.10538 26.653 1.7631 26.1946 2.19876C24.0254 4.25951 22.6444 6.39922 20.8671 8.76927C20.7169 8.96965 20.5169 9.1702 20.3329 9.37922C20.1667 9.56709 20.0126 9.76079 19.9344 9.9714C19.9006 10.0623 19.7991 10.1088 19.7082 10.075C19.6172 10.0412 19.5707 9.93967 19.6046 9.84873C19.7801 9.37588 20.2808 8.96472 20.5853 8.55814C22.3754 6.17169 23.7678 4.01877 25.9519 1.94374C26.429 1.49028 27.2378 0.807547 28.0723 0.386338C28.6563 0.0914912 29.2553 -0.072254 29.7701 0.0310216C29.9252 0.0618632 30.1013 0.150326 30.2887 0.290259C30.5407 0.478833 30.8198 0.763628 31.1075 1.10747C32.1966 2.40987 33.4138 4.56651 33.7429 5.33473C33.9582 5.83683 33.9534 6.17344 33.8317 6.4163C33.7095 6.66004 33.4582 6.822 33.1267 6.95771C32.7506 7.11174 32.2646 7.24022 31.7986 7.49911C29.4799 8.78742 26.8359 9.83393 24.2435 10.4104C24.0565 10.4518 22.2119 10.8947 21.2558 11.2466C21.0926 11.3067 20.9564 11.3633 20.8618 11.4149C20.8514 11.4211 20.8396 11.4283 20.829 11.4352Z"
        fill="#87425F"
      />
      <path
        fill-rule="evenodd"
        clip-rule="evenodd"
        d="M30.9364 8.80886C30.9041 8.84992 30.8542 8.8762 30.7985 8.8762C30.7012 8.8762 30.6224 8.79706 30.6224 8.70013C30.6224 8.63668 30.6503 8.56865 30.7273 8.5186C30.798 8.47295 30.9781 8.44211 31.0358 8.42308C31.4838 8.27381 32.088 7.95694 32.5648 7.56357C32.8693 7.31226 33.1229 7.03098 33.2386 6.73931C33.2742 6.64925 33.3765 6.60482 33.4666 6.64078C33.5572 6.67638 33.6016 6.77863 33.5656 6.86886C33.4315 7.20847 33.1434 7.5426 32.789 7.83533C32.2769 8.25795 31.6279 8.5972 31.1471 8.7574C31.1191 8.76674 31.0607 8.77769 31.0003 8.79126C30.9811 8.79584 30.954 8.8034 30.9364 8.80886Z"
        fill="#87425F"
      />
      <path
        fill-rule="evenodd"
        clip-rule="evenodd"
        d="M28.41 9.30166C29.2597 9.06691 31.8187 8.91764 33.605 9.25726C34.332 9.3956 34.9305 9.60533 35.2026 9.94547C35.3501 10.1298 35.4065 10.4065 35.4419 10.6895C35.4821 11.0092 35.4915 11.3384 35.5324 11.5857C35.7257 12.7455 35.7079 13.6287 35.3066 14.2199C34.9106 14.8036 34.1447 15.0798 32.886 15.0798C32.3484 15.0798 31.5074 15.1572 31.0237 14.9154C30.937 14.8718 30.8312 14.9073 30.7876 14.994C30.7439 15.0807 30.7796 15.1864 30.8663 15.2299C31.3916 15.4925 32.3023 15.4317 32.886 15.4317C34.3047 15.4317 35.1513 15.0752 35.5975 14.4175C36.0383 13.7677 36.0921 12.8014 35.8797 11.5277C35.8307 11.2329 35.8277 10.8205 35.7618 10.4482C35.7123 10.1691 35.6265 9.91198 35.477 9.72535C35.1676 9.33797 34.4993 9.06883 33.6709 8.91162C31.8293 8.56144 29.1916 8.72042 28.3161 8.96239C28.2221 8.98812 28.1672 9.08541 28.1934 9.17899C28.2192 9.27257 28.3159 9.32757 28.41 9.30166Z"
        fill="#87425F"
      />
      <path
        fill-rule="evenodd"
        clip-rule="evenodd"
        d="M20.738 14.5934C23.5145 14.1357 25.7004 14.0127 28.4996 14.14C29.9416 14.2055 31.3855 14.1615 32.7994 14.4445C33.4034 14.5651 34.0738 14.5228 34.6757 14.6733C34.7699 14.6966 34.8656 14.6394 34.8887 14.5452C34.9125 14.4509 34.8555 14.3552 34.761 14.3319C34.1537 14.18 33.4776 14.221 32.8682 14.0993C31.437 13.8129 29.9751 13.8548 28.5155 13.7884C25.69 13.6599 23.4834 13.7842 20.6808 14.2461C20.5848 14.2621 20.52 14.3527 20.5357 14.4482C20.5516 14.5444 20.6425 14.6096 20.738 14.5934Z"
        fill="#87425F"
      />
      <path
        fill-rule="evenodd"
        clip-rule="evenodd"
        d="M33.7613 22.4827C34.1281 22.17 34.3276 21.7171 34.5404 21.2721C34.6664 21.0089 34.8914 20.7177 35.0859 20.4168C35.2569 20.1528 35.4078 19.8835 35.4078 19.6174C35.4078 19.3056 35.2597 19.0439 35.1996 18.7485C35.1764 18.6343 35.1797 18.5222 35.1831 18.4119C35.1866 18.2989 35.1949 18.1869 35.126 18.0753C34.7842 17.5194 34.1903 17.2066 33.6609 16.8614C32.496 16.1018 29.9506 14.7673 28.6702 14.3764C28.5777 14.348 28.5251 14.2495 28.5535 14.157C28.5819 14.064 28.6804 14.0114 28.7735 14.0398C30.0759 14.4379 32.6678 15.7934 33.853 16.5667C34.4252 16.9398 35.0564 17.2909 35.4261 17.891C35.5195 18.0429 35.5377 18.193 35.5364 18.3456C35.5355 18.4547 35.5216 18.5652 35.5443 18.6789C35.609 18.997 35.7597 19.2813 35.7597 19.6176C35.7597 19.8837 35.6501 20.1568 35.4954 20.4233C35.2902 20.776 35.0038 21.1191 34.8579 21.424C34.5571 22.0525 34.2582 22.6785 33.6047 23.0054C33.2854 23.1649 32.9249 23.2105 32.5545 23.1915C32.0351 23.1649 31.4967 23.0108 31.0436 22.9039C29.8393 22.6189 28.8285 21.94 27.752 21.3688C25.7857 20.3253 23.8489 19.3419 22.2851 17.7204C22.0352 17.4611 22.0697 17.4475 21.8067 17.1844C21.6028 16.9805 20.7312 16.4014 20.403 15.8956C20.2118 15.6004 20.1898 15.3221 20.403 15.1088C20.4647 15.047 20.5696 15.0145 20.7067 15.0487C20.9668 15.1139 21.4402 15.4629 21.5107 15.5107C22.2983 16.0441 23.2031 16.5258 24.0769 16.898C26.2586 17.8273 28.2385 18.9769 30.27 20.1773C31.4529 20.8764 32.7369 21.2906 33.7273 22.2812C33.7821 22.336 33.7934 22.4171 33.7613 22.4827ZM20.6238 15.3945C20.5997 15.4386 20.6015 15.4885 20.6175 15.5408C20.6526 15.6546 20.7397 15.7752 20.8496 15.8987C21.2333 16.3302 21.8853 16.7655 22.0554 16.9359C22.321 17.2011 22.286 17.2147 22.5385 17.4764C24.0755 19.0707 25.9836 20.0324 27.917 21.0581C28.9668 21.6152 29.9502 22.2835 31.1243 22.5613C31.4884 22.6476 31.9094 22.7664 32.3297 22.8184C32.721 22.8667 33.1119 22.8582 33.4473 22.6906C33.515 22.6568 33.578 22.6191 33.6367 22.5782C33.5814 22.5891 33.5218 22.5731 33.4786 22.5299C32.5095 21.561 31.2484 21.164 30.0907 20.4802C28.0731 19.2878 26.1062 18.1451 23.939 17.2216C23.0448 16.8409 22.119 16.3478 21.3133 15.8017C21.2655 15.7696 21.0142 15.58 20.7918 15.4624C20.738 15.4344 20.6635 15.4081 20.6238 15.3945Z"
        fill="#87425F"
      />
      <path
        fill-rule="evenodd"
        clip-rule="evenodd"
        d="M1.50494 5.98104C1.68717 6.14776 2.49136 6.85289 2.49383 6.85483C2.78021 7.10315 3.14697 7.25578 3.47213 7.44365C3.90603 7.69356 4.38907 7.95791 4.9051 7.95791C5.00203 7.95791 5.08116 8.03705 5.08116 8.13398C5.08116 8.23126 5.00203 8.30987 4.9051 8.30987C4.32739 8.30987 3.78176 8.02859 3.29658 7.74854C2.95186 7.54975 2.56659 7.38356 2.26329 7.12044C2.26064 7.11832 1.42967 6.38994 1.2596 6.23344C1.20162 6.18021 1.18347 6.13526 1.18224 6.13103C1.08531 5.84042 1.14928 5.45128 1.31635 5.03131C1.66865 4.14642 2.46599 3.1001 2.76894 2.63342C3.01814 2.25063 3.58983 1.27144 4.16719 0.717346C4.4497 0.446644 4.74119 0.278687 4.99885 0.278687C5.27766 0.278687 5.53603 0.398334 5.78646 0.551133C6.00041 0.682254 6.20855 0.837546 6.42515 0.930071C8.68329 1.89779 10.2857 4.04858 11.9564 5.76496C12.9627 6.79877 13.9084 7.74027 14.7142 8.94874C14.7722 9.03544 15.1105 9.45506 15.2332 9.68135C15.2894 9.78586 15.3021 9.87345 15.2945 9.91822C15.278 10.0137 15.187 10.0781 15.0915 10.0617C15.0081 10.0472 14.9486 9.97669 14.9456 9.8958C14.9163 9.85438 14.4803 9.23264 14.4214 9.14382C13.628 7.95404 12.6948 7.02842 11.7042 6.01082C10.0648 4.32616 8.50267 2.2032 6.2863 1.25363C6.05543 1.15459 5.83158 0.991394 5.60282 0.851461C5.41002 0.73391 5.21369 0.631163 4.99885 0.631163C4.90915 0.631163 4.81576 0.668864 4.71883 0.727199C4.54119 0.834175 4.3584 1.01093 4.18039 1.21607C3.70667 1.76082 3.2714 2.50668 3.06432 2.82549C2.81001 3.21674 2.19758 4.02462 1.81056 4.7932C1.6634 5.08593 1.54864 5.3723 1.50511 5.62555C1.48273 5.75597 1.47886 5.87618 1.50494 5.98104Z"
        fill="#87425F"
      />
      <path
        fill-rule="evenodd"
        clip-rule="evenodd"
        d="M1.49617 6.06261C1.94787 6.06631 2.41916 6.24995 2.87721 6.47748C3.36028 6.71734 3.82765 7.00831 4.24163 7.21522C6.62684 8.408 9.04445 9.55726 11.4503 10.7026C11.891 10.9124 12.9764 11.4851 13.8262 11.8099C14.2135 11.958 14.5563 12.0532 14.7782 12.0532C14.8751 12.0532 14.9543 11.9744 14.9543 11.8773C14.9543 11.7803 14.8751 11.7012 14.7782 11.7012C14.5849 11.7012 14.2888 11.6103 13.9518 11.4812C13.111 11.1598 12.0375 10.5927 11.6019 10.3849C9.19815 9.24039 6.78247 8.09202 4.39903 6.90047C3.89957 6.65092 3.32289 6.28045 2.73496 6.02191C2.32168 5.84038 1.9026 5.71404 1.49901 5.71069C1.40173 5.71034 1.32224 5.78806 1.32135 5.88534C1.32065 5.98262 1.39889 6.06208 1.49617 6.06261Z"
        fill="#87425F"
      />
      <path
        fill-rule="evenodd"
        clip-rule="evenodd"
        d="M4.91079 14.7952C4.93916 14.7363 4.9993 14.6958 5.06909 14.6958C5.16637 14.6958 5.24494 14.7749 5.24494 14.8719C5.24494 14.9624 5.18875 15.0622 5.04916 15.1214C4.81142 15.2221 4.20867 15.2353 4.1098 15.2353C3.61369 15.2353 3.04181 15.2969 2.47925 15.3017C1.88797 15.3063 1.30726 15.2467 0.825773 15.006C0.735715 14.9612 0.649352 14.8549 0.585553 14.7087C0.481925 14.4714 0.419387 14.1147 0.365987 13.976C0.266236 13.7168 0.0677852 13.3851 0.0505139 13.1051C0.0133276 12.5112 -0.0709298 11.1959 0.122756 10.2581C0.213695 9.81648 0.371972 9.45657 0.604959 9.26236C0.766921 9.12736 0.985608 9.03942 1.22282 8.97774C1.53671 8.89614 1.88445 8.85968 2.14158 8.78407C3.57457 8.36286 4.94763 8.21887 6.4305 8.11066C6.52743 8.10396 6.61205 8.17658 6.61874 8.27351C6.62597 8.37045 6.55316 8.45502 6.45623 8.46171C4.99874 8.56834 3.64894 8.70759 2.24097 9.12157C2.02191 9.18625 1.73851 9.22398 1.46446 9.28284C1.22425 9.33395 0.989837 9.3995 0.829989 9.53274C0.57744 9.74299 0.465354 10.2069 0.404023 10.7294C0.303743 11.5805 0.371073 12.5892 0.401915 13.0832C0.417071 13.3316 0.606198 13.62 0.69467 13.8497C0.740315 13.9685 0.792293 14.2469 0.871424 14.4732C0.892925 14.5358 0.917077 14.5941 0.94457 14.6406C0.957611 14.6627 0.966951 14.6833 0.983165 14.6914C1.41706 14.9084 1.94294 14.954 2.47659 14.9497C3.04002 14.9452 3.61264 14.8833 4.10963 14.8833C4.17572 14.8833 4.49276 14.88 4.73597 14.8407C4.79924 14.8303 4.87713 14.8063 4.91079 14.7952Z"
        fill="#87425F"
      />
      <path
        fill-rule="evenodd"
        clip-rule="evenodd"
        d="M1.13415 14.8587C1.09097 14.9227 1.00936 14.9526 0.932869 14.9267C0.840696 14.8959 0.79119 14.7959 0.822031 14.7037C0.841946 14.6445 0.903278 14.5723 1.0166 14.5231C1.23654 14.4288 1.73566 14.37 1.85532 14.348C2.72206 14.1872 3.55179 14.1411 4.43121 14.1111C6.66627 14.0341 8.91648 13.8534 11.1519 13.8534C11.5588 13.8534 13.1918 13.8691 14.2873 13.8272C14.7339 13.8102 15.0871 13.7879 15.214 13.7456C15.3058 13.7147 15.4055 13.7646 15.4364 13.8568C15.4669 13.9489 15.4174 14.0489 15.3252 14.0792C15.1847 14.126 14.7947 14.1599 14.3004 14.1789C13.2003 14.2204 11.5604 14.2052 11.1519 14.2052C8.92018 14.2052 6.67439 14.3853 4.44356 14.4623C3.58158 14.4923 2.7686 14.5363 1.9193 14.6937C1.84264 14.7076 1.6024 14.736 1.38969 14.7804C1.29275 14.8012 1.16622 14.8469 1.13415 14.8587Z"
        fill="#87425F"
      />
      <path
        fill-rule="evenodd"
        clip-rule="evenodd"
        d="M5.91377 14.2263C5.31985 14.6191 4.63037 14.9991 4.01336 15.4567C3.37379 15.9316 2.81216 16.4904 2.49739 17.2238C1.8113 18.8247 2.89199 19.9447 4.17906 20.7641C4.43073 20.9239 4.72558 21.1477 5.03611 21.2831C5.26963 21.3849 5.51193 21.4375 5.75302 21.3973C6.13035 21.3342 6.50979 21.149 6.87848 20.9146C7.39962 20.5829 7.89994 20.1532 8.34406 19.8756C9.66884 19.0475 11.1091 18.4079 12.4178 17.5577C13.1034 17.1115 13.7967 16.7164 14.4946 16.2977C14.7865 16.1225 15.0746 15.8121 15.3955 15.7051C15.4873 15.6746 15.5373 15.5749 15.5068 15.4827C15.476 15.3906 15.376 15.341 15.2843 15.3715C14.9409 15.4862 14.6258 15.8084 14.3137 15.9957C13.6119 16.4166 12.9152 16.8142 12.2257 17.2625C10.9191 18.1118 9.48065 18.7502 8.15763 19.5771C7.78506 19.8102 7.37301 20.149 6.94246 20.4488C6.53729 20.7309 6.11641 20.9799 5.69502 21.0497C5.47208 21.0869 5.25057 21.0053 5.03908 20.8938C4.79675 20.7656 4.56872 20.5943 4.36816 20.4669C3.2286 19.7419 2.21399 18.7793 2.82096 17.3623C3.11069 16.6864 3.63395 16.1764 4.22312 15.7393C4.83519 15.285 5.5195 14.9091 6.10778 14.5194C6.1885 14.4656 6.21106 14.356 6.15731 14.2753C6.10355 14.1946 5.99449 14.1726 5.91377 14.2263Z"
        fill="#87425F"
      />
      <path
        fill-rule="evenodd"
        clip-rule="evenodd"
        d="M14.9234 14.4716C14.4352 14.6184 14.0001 14.8679 13.5369 15.074C11.038 16.1846 8.98185 17.5436 6.98507 19.3865C6.37934 19.9457 5.59264 20.4134 5.13336 21.1029C5.07926 21.1836 5.10109 21.2929 5.18198 21.347C5.2627 21.4007 5.37232 21.3787 5.42607 21.298C5.87019 20.6315 6.63841 20.1859 7.2237 19.6454C9.19139 17.8291 11.2174 16.49 13.68 15.3954C14.1296 15.1954 14.5513 14.9513 15.025 14.8084C15.1181 14.7805 15.1706 14.6824 15.1426 14.5893C15.1146 14.4961 15.0165 14.4437 14.9234 14.4716Z"
        fill="#87425F"
      />
      <path
        fill-rule="evenodd"
        clip-rule="evenodd"
        d="M15.6324 9.94931C15.7699 10.6116 15.6316 11.4179 15.6828 12.1035C15.7771 13.3567 16.0771 14.6319 16.0771 15.8887C16.0771 15.9856 16.1557 16.0648 16.2529 16.0648C16.3499 16.0648 16.429 15.9856 16.429 15.8887C16.429 14.6237 16.1287 13.3391 16.034 12.0769C15.9815 11.3774 16.1174 10.5542 15.977 9.87776C15.9576 9.78259 15.864 9.72176 15.7693 9.74115C15.6738 9.76089 15.6125 9.85414 15.6324 9.94931Z"
        fill="#87425F"
      />
      <path
        fill-rule="evenodd"
        clip-rule="evenodd"
        d="M19.4138 10.1853C19.4739 10.9995 19.2594 11.8282 19.2117 12.6403C19.1597 13.5217 19.1071 14.4261 19.1071 15.3075C19.1071 15.4044 19.1861 15.4834 19.283 15.4834C19.3803 15.4834 19.4594 15.4042 19.4594 15.3075C19.4594 14.4328 19.5114 13.5358 19.5625 12.6609C19.6112 11.8337 19.826 10.989 19.7647 10.1594C19.7574 10.0625 19.6732 9.98988 19.5765 9.99693C19.4797 10.0038 19.4069 10.0884 19.4138 10.1853Z"
        fill="#87425F"
      />
    </svg>
