<svg
      width="36"
      height="26"
      viewBox="0 0 36 26"
      fill="none"
      xmlns="http://www.w3.org/2000/svg"
    >
      <path
        fill-rule="evenodd"
        clip-rule="evenodd"
        d="M14.4961 10.0068C14.4961 10.0068 15.0421 9.41789 16.2232 9.37493C17.4041 9.33198 18.1548 9.5336 18.1548 9.5336C18.1548 9.5336 19.894 6.97777 21.3052 5.52764C22.7164 4.07759 24.0939 2.86188 25.8444 1.7537C27.5949 0.645302 28.7373 0.215984 29.4676 0.180043C30.198 0.144102 31.397 0.377282 31.7808 1.61052C32.1648 2.84355 32.0744 3.17526 32.0521 4.20491C32.0298 5.23456 32.149 5.52772 32.6582 6.40308C33.1675 7.27845 33.4603 6.92744 33.3621 8.12488C33.2639 9.32233 33.1855 9.89476 32.9835 10.0135C32.7818 10.1323 31.5913 10.8812 30.9993 11.181C30.4072 11.4808 28.1282 12.1934 28.1282 12.1934C28.1282 12.1934 31.2791 12.5881 32.6187 13.05C33.9583 13.512 35.5757 13.9678 35.8354 14.5674C36.0948 15.167 35.6275 15.7512 35.47 16.4823C35.3125 17.2134 34.5175 19.3294 33.4826 20.8205C32.4476 22.3116 32.1053 22.7783 31.3661 23.019C30.6269 23.2596 30.3194 23.3524 29.6532 23.1329C28.9869 22.9136 27.058 21.7056 26.2169 21.0381C25.3757 20.3707 21.9281 17.9395 21.4025 17.6581C20.8767 17.3765 18.5273 15.7273 18.5273 15.7273C18.5273 15.7273 17.5929 16.934 16.7672 17.1628C15.9416 17.3916 14.6146 16.8714 14.6146 16.8714C14.6146 16.8714 14.4961 16.6435 14.0378 17.2206C13.5793 17.7978 12.9746 18.7177 12.7278 19.0476C12.4809 19.3776 11.469 20.689 10.4552 21.9969C9.4415 23.3048 8.9948 23.9216 8.35298 24.5084C7.71115 25.0954 7.01768 25.5668 6.30442 25.3621C5.59115 25.1573 4.40736 23.5708 3.89301 23.1079C3.37874 22.6451 1.11278 21.0384 0.775503 20.4431C0.438301 19.8475 0.232224 19.5047 0.570741 18.6341C0.909258 17.7635 2.22249 16.2294 3.20736 15.4406C4.19223 14.6518 7.68529 12.7943 7.68529 12.7943C7.68529 12.7943 3.51782 12.8758 2.95935 12.8504C2.40088 12.8248 0.377595 13.0215 0.254505 11.8598C0.131414 10.698 0.410615 9.46581 0.449478 8.52608C0.488267 7.58636 1.02804 5.77981 1.15785 5.54824C1.28766 5.31682 2.20204 3.17775 2.87958 2.45243C3.55713 1.72696 4.36361 1.51373 5.69466 2.56237C7.02572 3.61116 8.63334 4.89079 9.39965 5.74256C10.1659 6.59448 11.7227 7.96826 12.286 8.3661C12.8495 8.76393 14.4961 10.0068 14.4961 10.0068Z"
        fill="#FF87AB"
      />
      <path
        fill-rule="evenodd"
        clip-rule="evenodd"
        d="M14.2127 10.0197C14.0942 10.6616 14.3939 12.4292 14.4155 13.2063C14.4486 14.3929 14.196 15.6627 14.3907 16.8302C14.4058 16.9222 14.4934 16.9845 14.5854 16.9696C14.6779 16.9541 14.7402 16.8666 14.7247 16.7746C14.5329 15.6218 14.787 14.3688 14.7544 13.1972C14.7332 12.4371 14.4297 10.7091 14.5462 10.0813C14.5628 9.98932 14.5022 9.90088 14.41 9.88374C14.3179 9.8666 14.2298 9.92771 14.2127 10.0197Z"
        fill="#87425F"
      />
      <path
        fill-rule="evenodd"
        clip-rule="evenodd"
        d="M14.2994 9.88869C14.3201 9.88004 14.3954 9.84711 14.4448 9.81622C14.6249 9.7042 14.8315 9.54008 14.9287 9.49935C15.4208 9.29482 16.6861 9.01865 17.5337 9.1804C17.9468 9.25949 18.2638 9.44434 18.3956 9.75274C18.645 10.3349 18.8177 12.0751 18.8055 13.5859C18.7968 14.6083 18.6996 15.526 18.5008 15.9237C18.1941 16.5368 17.2229 17.1746 16.277 17.3654C15.6216 17.4978 14.9841 17.4139 14.574 17.004C14.508 16.938 14.508 16.8306 14.574 16.7646C14.6404 16.6986 14.7475 16.6986 14.814 16.7646C15.1484 17.0995 15.6747 17.1414 16.2104 17.0334C17.0504 16.8635 17.9253 16.317 18.1974 15.7724C18.3835 15.4005 18.4584 14.5398 18.4666 13.5834C18.4785 12.1266 18.3243 10.4476 18.084 9.88666C18.0261 9.7519 17.908 9.66091 17.7578 9.59743C17.5802 9.52241 17.3601 9.48594 17.1227 9.4744C16.3711 9.43689 15.451 9.64954 15.0591 9.81299C14.9535 9.85695 14.7132 10.0618 14.5307 10.1584C14.3902 10.2329 14.2636 10.2422 14.1897 10.2085C14.1047 10.1694 14.0672 10.0688 14.1059 9.98359C14.1402 9.90857 14.2223 9.87036 14.2994 9.88869Z"
        fill="#87425F"
      />
      <path
        fill-rule="evenodd"
        clip-rule="evenodd"
        d="M33.0024 9.65563C33.1255 9.40868 33.1829 9.08332 33.1956 8.74114C33.2177 8.15252 33.1043 7.51247 32.9235 7.10597C32.6131 6.40703 32.0937 5.81553 31.9048 5.0599C31.7456 4.42155 31.8062 3.75435 31.8155 3.09902C31.8237 2.49123 31.7873 1.89325 31.4358 1.34621C30.872 0.46956 30.0965 0.256575 29.283 0.36571C28.4281 0.480617 27.5343 0.938014 26.7807 1.37439C26.1516 1.73812 25.4512 1.95436 24.8992 2.44539C24.3362 2.94558 23.8482 3.51993 23.291 4.02624C22.6922 4.57039 22.0454 5.05394 21.4693 5.63C20.2697 6.82964 19.3482 8.28067 18.2076 9.53124C18.1445 9.60048 18.0374 9.60539 17.9682 9.54259C17.8993 9.47945 17.894 9.37186 17.9572 9.30312C19.1015 8.04849 20.026 6.59392 21.2299 5.3902C21.8095 4.81057 22.4604 4.32326 23.0633 3.77537C23.621 3.26822 24.1102 2.69303 24.674 2.19199C25.2434 1.68603 25.9624 1.45636 26.6109 1.08109C27.4012 0.623163 28.3413 0.150316 29.2383 0.0301478C30.1769 -0.0956213 31.0706 0.151504 31.7211 1.16343C32.111 1.76987 32.164 2.42975 32.1545 3.10391C32.1455 3.73004 32.0811 4.36789 32.2335 4.97773C32.4177 5.71418 32.9304 6.28736 33.2336 6.96848C33.4308 7.41283 33.5586 8.1111 33.5345 8.75386C33.5179 9.1955 33.4286 9.61099 33.2511 9.90666C33.1166 10.1307 32.8402 10.3446 32.519 10.5308C32.0765 10.7874 31.5519 10.9983 31.2746 11.143C29.2786 12.1808 27.0263 12.5113 24.8376 12.8241C24.3758 12.8901 22.0489 13.1529 20.4639 13.0738C20.0443 13.0529 19.6756 13.0078 19.4024 12.9307C19.1926 12.8717 19.0346 12.7902 18.9385 12.6941C18.8594 12.6155 18.8391 12.5341 18.8465 12.4599C18.855 12.3728 18.9149 12.2778 19.0307 12.2012C19.2885 12.031 19.8919 11.9079 19.9362 11.8945C21.1309 11.5267 22.3823 11.2669 23.6142 11.0705C25.2733 10.8069 26.9271 10.4557 28.5713 10.1173C29.4125 9.94417 30.2993 9.95554 31.1315 9.76374C31.7323 9.6249 32.2171 9.48677 32.8334 9.48677C32.9262 9.4866 33.0019 9.56194 33.0024 9.65563ZM32.907 9.80787C32.8846 9.81891 32.8593 9.82503 32.8328 9.82503C32.2439 9.82503 31.7811 9.96115 31.207 10.0939C30.3725 10.2862 29.4827 10.2757 28.639 10.4491C26.9896 10.7889 25.331 11.1404 23.667 11.4052C22.4505 11.5987 21.2151 11.8553 20.0355 12.2184C20 12.2289 19.5841 12.3088 19.3165 12.431C19.2839 12.4456 19.2461 12.4694 19.2179 12.4884C19.2839 12.5358 19.3788 12.5719 19.494 12.6045C19.7474 12.6758 20.0908 12.7157 20.4802 12.7354C22.042 12.8131 24.3342 12.5536 24.7891 12.4884C26.9407 12.1812 29.1558 11.8623 31.1176 10.8424C31.392 10.6993 31.9111 10.4912 32.3481 10.2378C32.5767 10.1054 32.7831 9.96318 32.907 9.80787Z"
        fill="#87425F"
      />
      <path
        fill-rule="evenodd"
        clip-rule="evenodd"
        d="M14.3433 9.90987C14.2427 9.84147 14.1795 9.70788 14.105 9.57617C14.0032 9.39609 13.8894 9.21601 13.7241 9.10568C12.9888 8.61568 12.2015 8.20342 11.4992 7.64128C10.8124 7.0922 10.2746 6.38784 9.65829 5.77206C8.7813 4.89456 7.91194 4.1598 6.91275 3.41028C6.48096 3.08678 5.84142 2.48678 5.18185 2.07739C4.71018 1.78495 4.22625 1.59232 3.79514 1.63136C3.45466 1.66225 3.16005 1.85945 2.908 2.13271C2.56786 2.50136 2.30426 3.00888 2.08633 3.3446C0.791469 5.33654 0.38071 7.46744 0.177544 9.80478C0.145805 10.1697 0.00240112 10.8374 2.49148e-05 11.4216C-0.00167237 11.859 0.0831742 12.2509 0.308404 12.4761C0.481528 12.6493 0.826924 12.7781 1.2526 12.8587C2.1598 13.0307 3.445 13.0167 3.94688 13.0167C6.45531 13.0167 8.98376 13.0089 11.4857 12.8526C12.3693 12.7976 13.3857 12.8588 14.197 12.4534C14.2805 12.4115 14.3143 12.3097 14.2729 12.2262C14.2309 12.1423 14.1291 12.1084 14.0456 12.1503C13.274 12.5361 12.305 12.4619 11.4645 12.5145C8.9695 12.6705 6.44852 12.6778 3.94688 12.6778C3.45688 12.6778 2.2014 12.6938 1.31576 12.5259C0.973242 12.4611 0.687601 12.376 0.547914 12.2367C0.37564 12.0644 0.337797 11.7577 0.338985 11.4228C0.341362 10.8488 0.483903 10.1926 0.515303 9.83416C0.713207 7.55385 1.10714 5.47315 2.37026 3.52925C2.58005 3.20659 2.83023 2.71691 3.15696 2.36302C3.34926 2.15494 3.56671 1.99271 3.82589 1.96912C4.19369 1.93568 4.60104 2.11576 5.00313 2.36543C5.6537 2.76904 6.28391 3.36257 6.70908 3.68149C7.69521 4.42083 8.55316 5.14591 9.41878 6.01153C10.0437 6.63647 10.5908 7.34884 11.2877 7.90606C11.9976 8.47432 12.7928 8.89236 13.5362 9.38763C13.6878 9.48913 13.7708 9.67649 13.8633 9.83739C13.9477 9.98319 14.0385 10.1123 14.153 10.1901C14.2304 10.2427 14.336 10.2223 14.3884 10.1449C14.4407 10.0674 14.4207 9.96231 14.3433 9.90987Z"
        fill="#87425F"
      />
      <path
        fill-rule="evenodd"
        clip-rule="evenodd"
        d="M0.576963 12.3613C2.78514 11.4962 5.07171 11.9038 7.32588 12.1296C8.49209 12.246 9.73383 12.0449 10.8882 12.2372C12.0014 12.4225 13.2167 12.4848 14.3532 12.4848C14.4465 12.4848 14.5226 12.409 14.5226 12.3155C14.5226 12.2221 14.4464 12.1459 14.3532 12.1459C13.235 12.1459 12.0394 12.0851 10.944 11.9027C9.78256 11.7092 8.53286 11.9096 7.35969 11.7924C5.0524 11.5614 2.7135 11.1606 0.453395 12.0461C0.366324 12.0802 0.323057 12.1785 0.357343 12.2655C0.391628 12.3526 0.490231 12.3954 0.576963 12.3613Z"
        fill="#87425F"
      />
      <path
        fill-rule="evenodd"
        clip-rule="evenodd"
        d="M6.13435 25.2234C6.1184 25.1978 6.10957 25.1676 6.10957 25.1355C6.10957 24.5306 6.34959 23.8556 6.70466 23.1977C7.22284 22.2384 7.98458 21.3146 8.55605 20.7091C9.31542 19.9058 10.0107 19.083 10.8943 18.4003C11.3065 18.0817 11.7407 17.7881 12.1995 17.5399C12.3587 17.4535 13.4655 16.7819 13.9942 16.5477C14.1025 16.4997 14.1906 16.4691 14.2479 16.459C14.3053 16.4484 14.3498 16.4545 14.3791 16.4642C14.4508 16.4883 14.5091 16.5506 14.5246 16.6492C14.5344 16.7132 14.5225 16.8011 14.503 16.8607C14.49 16.9014 14.4722 16.932 14.4582 16.9495C14.0285 17.4863 13.5906 18.097 13.2455 18.7007C12.8545 19.3842 12.2039 19.9618 11.7342 20.599C10.8393 21.8141 9.89793 23.0928 8.8266 24.1645C8.45099 24.5396 7.95233 25.1002 7.3907 25.4154C6.9825 25.6447 6.54223 25.7474 6.08923 25.5963C6.04153 25.5803 5.92511 25.4994 5.77558 25.365C5.27743 24.9181 4.26837 23.8639 4.1022 23.6611C3.45333 22.8679 1.95922 22.0142 1.04829 21.0072C0.393302 20.283 0.0334468 19.4808 0.393611 18.5811C1.06489 16.9033 3.64871 14.8472 5.15149 13.8913C5.38453 13.743 6.47177 13.1453 7.02899 12.9829C7.14712 12.9483 7.24644 12.9329 7.3162 12.9364C7.37 12.9393 7.41311 12.9524 7.44706 12.9702C7.52937 13.0141 7.56026 13.1171 7.5163 13.1995C7.47438 13.2772 7.38018 13.3094 7.30041 13.2753C7.28938 13.2762 7.2422 13.2789 7.20792 13.2864C7.12611 13.3044 7.02459 13.3376 6.91172 13.3812C6.35128 13.5975 5.52914 14.0525 5.33361 14.1771C3.87733 15.1038 1.35873 17.0812 0.708497 18.7068C0.399251 19.4787 0.737848 20.1587 1.29948 20.7799C2.21398 21.7913 3.713 22.65 4.36442 23.4463C4.52702 23.6448 5.51437 24.6754 6.002 25.1129C6.04732 25.1533 6.09616 25.1932 6.13435 25.2234ZM14.0761 16.8862C14.024 16.9086 13.9694 16.9338 13.9185 16.9595C13.3551 17.2438 12.4989 17.7632 12.3607 17.8377C11.9179 18.0777 11.4997 18.3611 11.1017 18.6683C10.2323 19.3405 9.54967 20.1516 8.80253 20.9422C8.24734 21.53 7.50631 22.4265 7.00255 23.359C6.67667 23.9627 6.44853 24.5801 6.44853 25.1353C6.44853 25.2217 6.38369 25.293 6.30018 25.3035C6.71653 25.3969 7.11489 25.2171 7.47743 24.9576C7.90718 24.6497 8.28722 24.224 8.58713 23.9241C9.64658 22.8647 10.5762 21.5994 11.4618 20.3977C11.9238 19.7707 12.5669 19.2045 12.951 18.532C13.2732 17.9685 13.674 17.3991 14.0761 16.8862Z"
        fill="#87425F"
      />
      <path
        fill-rule="evenodd"
        clip-rule="evenodd"
        d="M18.9981 15.9006C19.03 15.9323 19.0677 15.9678 19.104 15.9975C19.443 16.2716 20.0299 16.6257 20.1274 16.6843C21.0503 17.2379 21.9372 17.879 22.8549 18.4297C23.6333 18.897 24.2823 19.563 25.0441 20.0705C25.9097 20.6478 26.8454 21.1855 27.6942 21.7924C28.2031 22.1553 28.6689 22.5122 29.1374 22.7622C29.801 23.1163 30.4694 23.2493 31.2841 22.842C31.9167 22.5258 32.5975 21.767 33.2146 20.8659C34.1544 19.4931 34.9398 17.7863 35.1487 16.7415C35.2205 16.3825 35.4831 15.7536 35.6046 15.2142C35.6412 15.0498 35.6648 14.8948 35.6616 14.7609C35.6592 14.6587 35.6445 14.5703 35.5941 14.51C35.1614 13.9907 34.2481 13.712 33.6181 13.5857C31.7533 13.2126 29.8635 12.3485 27.9245 12.3934C27.8312 12.3954 27.7534 12.3212 27.7514 12.228C27.749 12.1343 27.823 12.0566 27.9169 12.0546C29.8803 12.0094 31.796 12.8757 33.6844 13.2533C34.3793 13.3927 35.3773 13.7206 35.8544 14.2929C35.9868 14.4518 36.0247 14.7085 35.9851 15.0136C35.9094 15.5982 35.5652 16.3881 35.4812 16.808C35.2661 17.8837 34.462 19.644 33.4942 21.0575C32.8395 22.0139 32.1071 22.8094 31.4359 23.1455C30.503 23.6119 29.7376 23.4664 28.978 23.0608C28.4977 22.8045 28.0191 22.4404 27.4973 22.0677C26.6512 21.4636 25.7187 20.9275 24.856 20.3528C24.0992 19.8477 23.4547 19.1845 22.6807 18.7205C21.763 18.1697 20.8762 17.5287 19.953 16.9747C19.859 16.918 19.3228 16.5941 18.9664 16.3205C18.79 16.1849 18.6572 16.0537 18.6137 15.9682C18.5718 15.8855 18.5774 15.8142 18.6018 15.7599C18.63 15.6988 18.7016 15.6235 18.8674 15.6235C18.9608 15.6235 19.0368 15.6993 19.0368 15.7928C19.0368 15.8339 19.0222 15.8714 18.9981 15.9006Z"
        fill="#87425F"
      />
      <path
        fill-rule="evenodd"
        clip-rule="evenodd"
        d="M18.8131 15.5849C18.9341 15.5703 19.2004 15.6468 19.5289 15.7536C20.3675 16.0265 21.5619 16.532 21.8874 16.66C22.5558 16.9227 23.188 17.2061 23.8435 17.5023C24.4065 17.7566 24.9885 17.9859 25.5157 18.3106C27.2452 19.3746 29.2445 20.0983 30.3431 21.8565C30.3917 21.9339 30.4446 21.9913 30.491 22.0463C30.5285 22.0906 30.5631 22.1307 30.5631 22.2031C30.5631 22.2965 30.6388 22.3725 30.7325 22.3725C30.8258 22.3725 30.9019 22.2963 30.9019 22.2031C30.9019 22.0561 30.8538 21.9608 30.7846 21.8708C30.7398 21.8126 30.6816 21.7584 30.6307 21.677C29.504 19.8741 27.4667 19.1136 25.6932 18.0219C25.1535 17.6899 24.5588 17.4536 23.9832 17.1934C23.3225 16.8952 22.6855 16.6092 22.0113 16.345C21.6834 16.2158 20.4793 15.7066 19.6341 15.4316C19.2406 15.3037 18.9166 15.2312 18.7717 15.2492C18.6788 15.2606 18.6128 15.3453 18.6242 15.4378C18.6356 15.5304 18.7203 15.5963 18.8131 15.5849Z"
        fill="#87425F"
      />
    </svg>
