<svg
      width="36"
      height="37"
      viewBox="0 0 36 37"
      fill="none"
      xmlns="http://www.w3.org/2000/svg"
    >
      <path
        fill-rule="evenodd"
        clip-rule="evenodd"
        d="M18.769 7.25071C18.769 7.25071 19.8631 5.91361 20.8304 4.9019C21.7976 3.89036 26.0401 0.625255 28.5321 0.327807C31.024 0.0305247 31.1592 0.373302 31.484 1.39499C31.8088 2.41693 31.5405 3.55357 31.9068 4.75493C32.2733 5.95628 33.1331 7.49185 33.6881 7.90924C34.2432 8.32663 35.6361 10.1066 35.7884 10.9811C35.9407 11.8555 36.0267 12.4155 35.416 13.1048C34.8056 13.7941 33.9589 14.2301 32.8199 14.3693C31.681 14.5084 30.928 14.5977 30.928 14.5977C30.928 14.5977 31.0479 14.8672 30.4748 15.9887C29.9017 17.1102 29.6284 17.2731 29.0636 17.874C28.4988 18.4747 28.2508 19.0826 27.4437 19.206C26.6367 19.3293 25.9535 19.1599 25.5363 18.6644C25.1191 18.1687 19.4691 12.8476 19.4691 12.8476C19.4691 12.8476 20.1738 14.1462 20.7779 15.6123C21.3822 17.0784 22.5833 20.0901 22.6396 20.2359C22.6956 20.3816 23.931 24.2973 24.4133 25.8634C24.8956 27.4294 25.1996 29.3002 25.5717 30.3892C25.944 31.478 26.4557 32.5821 26.3896 33.1235C26.3236 33.665 26.6873 33.9335 25.8185 33.5552C24.95 33.1769 24.3027 32.6627 23.4515 32.9198C22.6002 33.1769 21.8435 33.9101 21.3001 34.402C20.7569 34.8939 20.5794 35.0364 20.4151 34.2964C20.2506 33.5563 19.2511 25.088 19.0189 23.4844C18.7866 21.8808 17.421 13.6756 17.421 13.6756C17.421 13.6756 17.4559 13.9431 16.7612 15.5895C16.0665 17.2359 14.7139 20.792 14.0411 22.9171C13.3684 25.042 12.3577 27.9902 12.0304 29.6564C11.7035 31.3225 11.2357 33.1763 11.1317 33.9636C11.0275 34.7511 10.8091 36.3789 10.4074 36.2408C10.0056 36.1029 9.73469 35.2919 9.52391 35.2192C9.3133 35.1466 8.28504 34.9226 7.62061 34.9851C6.95601 35.0478 5.55702 34.8811 6.16589 32.6073C6.77476 30.3333 7.91722 27.5239 8.2526 26.7692C8.58798 26.0146 11.0903 20.4423 12.3983 18.6211C13.7061 16.8001 14.3243 16.2445 14.6911 15.2284C15.0578 14.212 15.3999 13.3251 15.3999 13.3251C15.3999 13.3251 14.7591 13.8661 14.1832 14.4101C13.6073 14.9539 12.9221 15.6344 12.4159 16.1513C11.9094 16.6682 11.349 17.181 9.89838 18.54C8.44791 19.8991 7.65039 20.4551 6.93646 20.688C6.22262 20.921 5.78776 20.1888 5.47758 19.3846C5.16758 18.5803 4.71159 17.0633 4.71159 17.0633C4.71159 17.0633 1.27014 18.0899 0.684473 15.8131C0.0988092 13.5363 -0.0785274 12.7907 0.496406 11.5891C1.07134 10.3877 1.55544 9.24726 1.65127 8.32572C1.74709 7.40426 1.51011 5.10952 1.79342 3.95741C2.07689 2.80513 3.18667 0.365068 5.26523 0.763745C7.34379 1.16242 9.54013 2.55285 11.0381 4.02528C12.5362 5.49772 15.19 7.92105 15.19 7.92105C15.19 7.92105 15.396 7.52421 15.9771 7.69788C16.5582 7.87139 16.9986 8.11769 16.9986 8.11769C16.9986 8.11769 17.2422 7.39104 17.7161 7.29322C18.1903 7.19565 18.769 7.25071 18.769 7.25071Z"
        fill="#FF87AB"
      />
      <path
        fill-rule="evenodd"
        clip-rule="evenodd"
        d="M15.4214 8.08493C15.4637 8.23335 15.5449 8.52653 15.5615 8.64655C15.606 8.97064 15.6732 9.29164 15.7229 9.61535C15.8951 10.7351 15.8064 11.7675 15.8064 12.8854C15.8064 12.9921 15.7196 13.0782 15.6133 13.0782C15.5067 13.0782 15.4203 12.9921 15.4203 12.8854C15.4203 11.7875 15.5103 10.7736 15.3414 9.67433C15.2913 9.3483 15.2241 9.02534 15.1791 8.69892C15.1609 8.56905 15.0724 8.32746 15.0334 8.16183C15.0046 8.03795 15.0078 7.93787 15.0264 7.88916C15.0538 7.81456 15.1048 7.7726 15.1675 7.75328C15.2142 7.73898 15.2888 7.73201 15.3825 7.79173C15.4726 7.84874 15.4985 7.96841 15.4415 8.05808C15.4359 8.06794 15.4289 8.07662 15.4214 8.08493Z"
        fill="#87425F"
      />
      <path
        fill-rule="evenodd"
        clip-rule="evenodd"
        d="M16.841 7.96134C16.9838 7.86625 17.0423 7.6983 17.1276 7.55085C17.269 7.30734 17.4457 7.093 17.8335 7.0499C18.7395 6.94922 19.2714 7.63006 19.5246 8.59869C19.873 9.93084 19.6995 11.7964 19.4689 12.4879C19.4355 12.589 19.3261 12.6433 19.225 12.6099C19.124 12.576 19.0697 12.4664 19.1031 12.3657C19.3207 11.7131 19.4802 9.95289 19.1514 8.6965C18.953 7.93872 18.5852 7.35465 17.8763 7.4335C17.5846 7.46597 17.5002 7.67376 17.3976 7.8589C17.2918 8.05043 17.175 8.22996 16.9691 8.33239C16.905 8.36447 16.8137 8.37277 16.7027 8.32677C16.5918 8.28077 16.4311 8.16309 16.2533 8.04655C16.1565 7.98355 16.0538 7.92093 15.951 7.87764C15.847 7.83454 15.745 7.80439 15.6551 7.84942C15.5944 7.87918 15.5452 7.94123 15.5007 8.03631C15.4553 8.13275 15.3401 8.17449 15.2442 8.12907C15.1476 8.08404 15.106 7.96907 15.1515 7.87263C15.2618 7.63705 15.4093 7.52011 15.5643 7.47082C15.7806 7.40222 16.0324 7.47316 16.2697 7.60497C16.4746 7.71822 16.7648 7.9107 16.841 7.96134Z"
        fill="#87425F"
      />
      <path
        fill-rule="evenodd"
        clip-rule="evenodd"
        d="M16.027 13.2642C16.0548 13.2735 16.1062 13.2903 16.1462 13.2981C16.3738 13.3421 16.6981 13.3481 16.7872 13.3411C17.2106 13.3087 17.4621 13.1158 17.8349 13.0225C17.988 12.9844 18.1539 12.997 18.3205 13.0149C18.4425 13.0285 18.5647 13.046 18.6773 13.0209C18.7614 13.0024 18.8344 12.9537 18.9046 12.8999C18.9964 12.8294 19.0812 12.7482 19.1657 12.681C19.2488 12.6143 19.3703 12.6276 19.437 12.7111C19.5033 12.7942 19.4898 12.9158 19.4069 12.9821C19.2148 13.1355 19.0117 13.3421 18.7608 13.3981C18.6088 13.4316 18.4441 13.4167 18.2788 13.3985C18.1586 13.3856 18.039 13.3694 17.9286 13.3966C17.534 13.4954 17.2648 13.6915 16.8164 13.7259C16.6815 13.7362 16.0929 13.717 15.8623 13.6156C15.7189 13.5526 15.6638 13.4477 15.6638 13.3545C15.6638 13.2478 15.75 13.1616 15.8568 13.1616C15.9303 13.1618 15.9945 13.2034 16.027 13.2642Z"
        fill="#87425F"
      />
      <path
        fill-rule="evenodd"
        clip-rule="evenodd"
        d="M19.0079 7.3057C21.2194 4.5065 23.737 2.78529 26.9318 1.23089C27.2333 1.0844 28.6118 0.487449 29.513 0.396037C29.6842 0.378836 29.8358 0.379388 29.9543 0.411277C30.0258 0.430216 30.0832 0.457691 30.107 0.516636C30.1653 0.663322 30.1371 0.826049 30.0646 0.995732C29.9774 1.20078 29.8247 1.41219 29.6417 1.62053C29.0587 2.28284 28.1672 2.89931 27.8686 3.11538C26.1928 4.32926 24.1862 4.96337 22.3133 5.79594C21.3203 6.23754 20.2674 6.87162 19.2126 7.13542C19.1092 7.16093 19.0462 7.2663 19.0721 7.3693C19.098 7.4727 19.2029 7.53586 19.3063 7.50977C20.3818 7.24075 21.4575 6.59874 22.4702 6.14844C24.3676 5.30524 26.3975 4.65725 28.0949 3.42811C28.4586 3.16469 29.658 2.32924 30.2126 1.51715C30.4867 1.11536 30.6009 0.712756 30.4651 0.373389C30.4098 0.234627 30.305 0.134917 30.1566 0.0728803C29.9873 0.00233981 29.7497 -0.0152492 29.4741 0.0125804C28.5283 0.108245 27.0795 0.730162 26.7631 0.884192C23.513 2.46546 20.9547 4.21911 18.7051 7.06663C18.6392 7.15011 18.6535 7.27169 18.7372 7.33797C18.8205 7.40368 18.942 7.38919 19.0079 7.3057Z"
        fill="#87425F"
      />
      <path
        fill-rule="evenodd"
        clip-rule="evenodd"
        d="M30.3903 0.525572C30.6268 0.468946 30.8054 0.607715 30.9463 0.788994C31.1206 1.01356 31.2381 1.30983 31.309 1.52377C31.5442 2.22976 31.4571 3.16939 31.489 4.01027C31.5122 4.62214 31.5989 5.18413 31.8716 5.59326C32.2 6.08588 32.4699 6.64385 32.8228 7.11425C33.6869 8.26628 34.6768 9.31318 35.2864 10.6434C35.618 11.367 35.7913 12.1458 35.3513 12.8661C34.8702 13.6527 34.0562 14.0104 33.1686 14.1644C32.2409 14.3258 31.2308 14.2647 30.3986 14.2052C28.4472 14.066 26.5362 14.0568 24.6299 13.5363C23.1638 13.1365 21.5226 12.3685 19.9883 12.3685C19.8816 12.3685 19.795 12.4552 19.795 12.5613C19.795 12.668 19.8818 12.7544 19.9883 12.7544C21.4901 12.7544 23.0933 13.5174 24.5283 13.9087C26.4597 14.4358 28.3948 14.4491 30.3711 14.5902C31.2311 14.6518 32.2751 14.7112 33.2343 14.5448C34.2332 14.3712 35.1393 13.9528 35.6806 13.0675C36.1922 12.2299 36.0229 11.3241 35.6369 10.4826C35.0158 9.12725 34.012 8.05678 33.1317 6.88291C32.7829 6.41812 32.5171 5.86615 32.1925 5.37952C31.8914 4.92768 31.871 4.25997 31.866 3.56501C31.8604 2.808 31.8813 2.02005 31.6749 1.40162C31.5746 1.10052 31.3896 0.664146 31.1123 0.396479C30.8946 0.186404 30.6243 0.0727803 30.3001 0.150278C30.1967 0.174822 30.1326 0.279165 30.1576 0.38256C30.1823 0.486728 30.2867 0.550696 30.3903 0.525572Z"
        fill="#87425F"
      />
      <path
        fill-rule="evenodd"
        clip-rule="evenodd"
        d="M19.9857 9.81296C20.8081 9.54027 21.5952 9.33004 22.4504 9.18722C22.5551 9.17002 22.6262 9.07025 22.609 8.96551C22.5914 8.86018 22.4923 8.78929 22.387 8.80688C21.5117 8.9526 20.706 9.16731 19.8642 9.44696C19.7631 9.4804 19.7082 9.58977 19.7416 9.69085C19.7754 9.79212 19.8845 9.84678 19.9857 9.81296Z"
        fill="#87425F"
      />
      <path
        fill-rule="evenodd"
        clip-rule="evenodd"
        d="M20.0978 10.7721C20.8366 10.838 21.5482 10.9586 22.2728 11.1038C22.3771 11.1246 22.4785 11.0564 22.5 10.952C22.5205 10.8477 22.4527 10.7462 22.3483 10.7253C21.6099 10.5773 20.8849 10.455 20.1316 10.3877C20.0255 10.3784 19.9318 10.4569 19.9223 10.563C19.9132 10.6691 19.9917 10.7628 20.0978 10.7721Z"
        fill="#87425F"
      />
      <path
        fill-rule="evenodd"
        clip-rule="evenodd"
        d="M15.2096 8.10042C15.2676 8.13328 15.307 8.19647 15.307 8.26778C15.307 8.37446 15.2202 8.46086 15.1141 8.46086C14.7656 8.46086 14.4114 8.30583 14.0705 8.11392C13.7677 7.94327 13.4754 7.74483 13.206 7.63718C12.6944 7.43213 12.128 7.36909 11.6253 7.11727C10.1782 6.39409 8.73006 5.69469 7.27364 4.92841C6.79957 4.67891 6.27505 4.41221 5.86301 4.06859C5.43494 3.71183 4.80317 3.37847 4.32079 2.96663C3.7814 2.50648 3.42387 1.95179 3.61172 1.20038C3.70545 0.825651 4.0365 0.621589 4.49395 0.561291C5.3901 0.443982 6.79357 0.880366 7.18937 1.10687C8.85451 2.0581 10.3262 3.25573 11.7846 4.53165C13.0991 5.68155 14.256 6.27662 15.241 7.85866C15.2897 7.93751 15.2745 8.03858 15.2096 8.10042ZM14.9065 8.05211C13.946 6.51491 12.8106 5.94168 11.5298 4.82154C10.091 3.56263 8.64019 2.37988 6.99786 1.44121C6.68709 1.2636 5.69875 0.947243 4.90638 0.927337C4.66016 0.921346 4.43366 0.943179 4.25799 1.01411C4.12251 1.06938 4.02047 1.15519 3.98626 1.29376C3.83822 1.88514 4.14669 2.3105 4.57109 2.67325C5.05251 3.08412 5.68292 3.41635 6.10964 3.77214C6.50157 4.09875 7.00248 4.34958 7.45336 4.58652C8.90707 5.35183 10.3533 6.04991 11.7977 6.77213C12.2907 7.01892 12.8473 7.07789 13.3492 7.27869C13.6325 7.39232 13.9412 7.59829 14.2597 7.77783C14.4725 7.89708 14.6891 8.00669 14.9065 8.05211Z"
        fill="#87425F"
      />
      <path
        fill-rule="evenodd"
        clip-rule="evenodd"
        d="M3.78653 0.831638C3.28366 0.99533 2.85057 1.56953 2.54019 1.96436C1.61891 3.13746 1.47337 4.28581 1.47607 5.45562C1.47878 6.56784 1.62161 7.70018 1.29055 8.89125C1.03177 9.82257 0.689514 10.5902 0.424552 11.3425C0.0121322 12.5133 -0.217454 13.6482 0.293336 15.2661C0.601782 16.2421 1.09864 16.9717 2.09393 17.2825C2.57593 17.4332 3.14681 17.4411 3.65276 17.3988C4.62487 17.3176 5.59721 16.9827 6.54612 16.7457C7.70608 16.4555 8.91995 15.9327 10.0086 15.4377C10.9525 15.0087 11.797 14.4127 12.7372 13.979C13.1272 13.7991 13.6723 13.6298 14.1552 13.4135C14.5008 13.2585 14.8156 13.0786 15.0341 12.8602C15.1093 12.7847 15.1093 12.6627 15.0341 12.5869C14.959 12.5118 14.8366 12.5118 14.7614 12.5869C14.5722 12.7762 14.2966 12.9275 13.9974 13.0614C13.5127 13.2781 12.9668 13.4478 12.5753 13.6287C11.636 14.0619 10.7922 14.6574 9.84893 15.0864C8.78077 15.5715 7.59048 16.0864 6.45237 16.3708C5.52336 16.6031 4.57249 16.9348 3.62068 17.0142C3.16246 17.0523 2.64529 17.0504 2.2093 16.9139C1.34484 16.6439 0.928739 15.9975 0.661458 15.15C0.182363 13.6323 0.40172 12.5682 0.78805 11.4705C1.05572 10.7108 1.4013 9.93523 1.6624 8.99462C2.00331 7.76683 1.86455 6.60125 1.86184 5.45463C1.85952 4.36598 1.98569 3.29416 2.84339 2.2032C3.01172 1.98849 3.21642 1.71154 3.452 1.49258C3.5925 1.36174 3.74322 1.25139 3.90614 1.19844C4.00721 1.16558 4.06286 1.05662 4.02943 0.955352C3.99657 0.853889 3.8876 0.798784 3.78653 0.831638Z"
        fill="#87425F"
      />
      <path
        fill-rule="evenodd"
        clip-rule="evenodd"
        d="M15.2997 9.96868C14.9922 9.9451 13.6624 10.1463 12.7643 10.3996C12.3468 10.5175 12.0202 10.6567 11.8989 10.7781C11.8237 10.8532 11.8237 10.9752 11.8989 11.0507C11.9744 11.1259 12.0964 11.1259 12.1721 11.0507C12.2686 10.9543 12.5372 10.8646 12.8693 10.7711C13.7198 10.5308 14.9791 10.3314 15.2709 10.3533C15.377 10.3616 15.4698 10.2818 15.4777 10.1757C15.4856 10.0694 15.4058 9.9766 15.2997 9.96868Z"
        fill="#87425F"
      />
      <path
        fill-rule="evenodd"
        clip-rule="evenodd"
        d="M15.2069 11.0289C14.3599 11.3811 13.3165 11.62 12.5496 12.1311C12.4611 12.1901 12.4369 12.3101 12.4957 12.3988C12.555 12.4873 12.6748 12.5115 12.7633 12.4521C13.5107 11.9545 14.5301 11.7286 15.3554 11.3853C15.4536 11.3445 15.5001 11.2313 15.4592 11.1331C15.4184 11.0346 15.3051 10.9882 15.2069 11.0289Z"
        fill="#87425F"
      />
      <path
        fill-rule="evenodd"
        clip-rule="evenodd"
        d="M4.55874 17.4595C4.7694 17.9346 5.02202 18.9507 5.38303 19.7647C5.6478 20.3617 5.98175 20.8474 6.37369 21.0041C6.62319 21.1038 6.95619 21.0472 7.31102 20.8793C8.02203 20.5434 8.84819 19.7773 9.16862 19.4812C10.2261 18.5053 11.606 17.5382 12.5101 16.409C13.0068 15.7874 13.6521 15.03 14.2653 14.5192C14.6864 14.1681 15.187 13.8685 15.5741 13.4812C15.6496 13.4057 15.6496 13.2837 15.5741 13.2085C15.4989 13.133 15.3769 13.133 15.3014 13.2085C14.922 13.5879 14.4304 13.8792 14.018 14.223C13.3862 14.7494 12.7206 15.5281 12.2084 16.1678C11.3165 17.2829 9.95055 18.2341 8.90694 19.1979C8.64449 19.44 8.02897 20.0146 7.43063 20.376C7.24278 20.4896 7.05724 20.5819 6.88562 20.6321C6.74744 20.6725 6.62086 20.6874 6.51689 20.646C6.36807 20.5861 6.23686 20.4578 6.11394 20.2912C5.97479 20.1024 5.84994 19.8658 5.73591 19.6084C5.37509 18.7944 5.12234 17.7776 4.9113 17.3028C4.8682 17.2058 4.75415 17.1617 4.65674 17.2048C4.55915 17.2481 4.51507 17.3621 4.55874 17.4595Z"
        fill="#87425F"
      />
      <path
        fill-rule="evenodd"
        clip-rule="evenodd"
        d="M19.5593 13.1383C19.7986 13.2284 20.0222 13.4232 20.2346 13.6482C20.5861 14.0215 20.9038 14.4798 21.1854 14.7743C22.0592 15.6877 23.0272 16.5419 23.979 17.3783C24.6906 18.0035 25.2122 18.5763 25.6902 18.9526C26.0404 19.2282 26.3719 19.4016 26.7268 19.4373C27.301 19.4953 27.9589 19.1898 28.8875 18.2611C29.2363 17.9129 29.6597 17.532 29.9587 17.1331C30.4741 16.4462 30.6846 15.6345 31.0572 14.8895C31.1046 14.794 31.0659 14.6781 30.971 14.6307C30.8753 14.583 30.7594 14.6214 30.7122 14.7165C30.3499 15.4411 30.1514 16.2333 29.65 16.9016C29.3615 17.2865 28.951 17.652 28.6148 17.9882C27.8092 18.7939 27.2637 19.1034 26.7655 19.0531C26.4775 19.0243 26.2135 18.8732 25.9292 18.6492C25.4557 18.2768 24.9389 17.708 24.2339 17.0884C23.2906 16.2595 22.3308 15.413 21.4645 14.5076C21.1833 14.2135 20.8665 13.7562 20.5153 13.3838C20.2593 13.1121 19.9839 12.8858 19.6948 12.7772C19.5951 12.7397 19.4837 12.7901 19.4461 12.8898C19.409 12.9896 19.4596 13.1009 19.5593 13.1383Z"
        fill="#87425F"
      />
      <path
        fill-rule="evenodd"
        clip-rule="evenodd"
        d="M15.3753 13.5578C15.2344 13.6529 15.096 13.8235 14.975 14.0235C14.8127 14.2906 14.6764 14.6083 14.5883 14.8143C14.1871 15.7509 13.4808 16.7746 12.9097 17.6089C10.4895 21.1466 8.43507 25.1629 7.00552 29.2129C6.71195 30.0455 6.28659 31.0599 6.06724 32.0641C5.91553 32.7571 5.86215 33.4453 6.0042 34.0701C6.10064 34.4942 6.28057 34.7653 6.50745 34.9421C6.73338 35.118 7.00936 35.2009 7.31259 35.2334C7.84038 35.291 8.45827 35.1866 8.98607 35.2807C9.35752 35.3466 9.54534 35.5553 9.70401 35.8062C9.82924 36.0043 9.93727 36.2264 10.0807 36.4417C10.14 36.5302 10.2598 36.5543 10.3483 36.495C10.4369 36.436 10.461 36.3164 10.4021 36.2279C10.2602 36.0155 10.1539 35.7956 10.03 35.6004C9.81629 35.2614 9.55558 34.9901 9.05368 34.9004C8.51796 34.8053 7.89008 34.9077 7.35378 34.8497C7.12515 34.8252 6.91447 34.7699 6.74479 34.6378C6.57587 34.5065 6.45219 34.2991 6.3803 33.9847C6.25043 33.4119 6.30513 32.7811 6.44428 32.146C6.66034 31.1581 7.08032 30.1605 7.36963 29.3412C8.78798 25.3222 10.8265 21.3369 13.2282 17.8261C13.8122 16.9727 14.532 15.924 14.9429 14.9657C15.0254 14.7728 15.1526 14.474 15.3047 14.2235C15.3932 14.0774 15.4879 13.9466 15.5907 13.877C15.6793 13.8177 15.7027 13.6975 15.6427 13.609C15.5834 13.521 15.4634 13.498 15.3753 13.5578Z"
        fill="#87425F"
      />
      <path
        fill-rule="evenodd"
        clip-rule="evenodd"
        d="M17.1613 13.4696C16.5013 15.1384 15.9902 16.8778 15.4415 18.586C14.9638 20.0716 14.3184 21.5002 13.792 22.9682C12.9793 25.2354 12.3667 27.5968 11.7956 29.9322C11.4311 31.4234 11.1671 32.9504 10.7567 34.4281C10.6805 34.7013 10.6351 35.1656 10.5392 35.5654C10.4853 35.7904 10.4209 35.9948 10.3083 36.1075C10.2331 36.1831 10.2331 36.3052 10.3083 36.3802C10.3838 36.4557 10.5058 36.4557 10.5816 36.3802C10.7337 36.2281 10.8413 35.96 10.9146 35.6553C11.0093 35.26 11.0537 34.8014 11.1283 34.5315C11.5402 33.0495 11.8051 31.5189 12.1705 30.024C12.7383 27.7012 13.3474 25.3529 14.1554 23.0987C14.6832 21.6264 15.3302 20.1938 15.8089 18.7039C16.3554 17.004 16.8637 15.2725 17.5204 13.6111C17.5594 13.5123 17.5105 13.4 17.4118 13.3612C17.3126 13.3216 17.2004 13.3703 17.1613 13.4696Z"
        fill="#87425F"
      />
      <path
        fill-rule="evenodd"
        clip-rule="evenodd"
        d="M17.3579 13.7572C17.4023 13.8194 17.4168 13.965 17.434 14.1236C17.4665 14.427 17.4741 14.7766 17.493 14.8978C17.6465 15.8691 17.8677 16.833 17.9896 17.8097C18.4933 21.8377 19.1452 25.883 19.4819 29.9262C19.5833 31.1457 19.8032 32.4017 20.0042 33.6067C20.0343 33.788 20.049 34.2713 20.1655 34.5831C20.238 34.7756 20.3534 34.9096 20.4954 34.9568C20.6624 35.0125 20.8465 34.9744 21.021 34.8776C21.2227 34.7653 21.4129 34.5751 21.5298 34.4578C21.9793 34.0083 22.5208 33.3535 23.1207 33.0961C23.5816 32.899 24.0703 33.0401 24.5507 33.2403C25.0924 33.4652 25.6245 33.77 26.1022 33.8763C26.2062 33.8995 26.309 33.834 26.3322 33.7296C26.3554 33.6256 26.2895 33.5228 26.1855 33.4996C25.7273 33.3976 25.2184 33.1003 24.6989 32.8837C24.1181 32.6421 23.5255 32.503 22.9685 32.7417C22.3271 33.0163 21.7374 33.7045 21.257 34.1851C21.1586 34.2829 21.0024 34.4462 20.8335 34.5399C20.7606 34.5807 20.6874 34.6142 20.6173 34.591C20.5947 34.5831 20.582 34.5594 20.5672 34.5343C20.5343 34.4787 20.5107 34.4077 20.4912 34.3306C20.4193 34.0463 20.4095 33.6902 20.3849 33.5431C20.1855 32.3484 19.9669 31.1034 19.8664 29.8941C19.5292 25.8455 18.8769 21.7948 18.3729 17.7614C18.25 16.781 18.0283 15.8127 17.8742 14.8373C17.8524 14.6982 17.8468 14.2519 17.7981 13.9292C17.7712 13.7529 17.7256 13.6082 17.6725 13.5336C17.6108 13.4468 17.4902 13.4265 17.4034 13.4882C17.3167 13.5498 17.2962 13.6704 17.3579 13.7572Z"
        fill="#87425F"
      />
      <path
        fill-rule="evenodd"
        clip-rule="evenodd"
        d="M19.7555 13.2522C19.7635 13.2708 19.7955 13.3437 19.8293 13.4109C20.0603 13.8682 20.6526 14.904 20.7282 15.0509C21.365 16.2893 21.8563 17.6623 22.3646 18.9591C23.7686 22.5389 24.6813 26.1613 25.5848 29.8872C25.717 30.4332 26.1842 31.7097 26.4522 32.6572C26.5736 33.0863 26.6536 33.4523 26.6536 33.6657C26.6536 33.772 26.5668 33.8586 26.4605 33.8586C26.3538 33.8586 26.2674 33.7718 26.2674 33.6657C26.2674 33.4742 26.1896 33.1475 26.0812 32.7626C25.8112 31.8104 25.3427 30.5269 25.2095 29.9782C24.3106 26.2695 23.4023 22.6633 22.0054 19.1002C21.5012 17.8153 21.016 16.4544 20.3848 15.2272C20.3092 15.0801 19.7159 14.0425 19.4843 13.5843C19.431 13.4786 19.3958 13.3987 19.3842 13.3602C19.372 13.3208 19.3713 13.2911 19.3727 13.2731C19.3793 13.1668 19.471 13.0862 19.5777 13.0932C19.6683 13.0986 19.7403 13.1662 19.7555 13.2522Z"
        fill="#87425F"
      />
    </svg>
