<svg
      width="36"
      height="35"
      viewBox="0 0 36 35"
      fill="none"
      xmlns="http://www.w3.org/2000/svg"
    >
      <path
        fill-rule="evenodd"
        clip-rule="evenodd"
        d="M6.27961 11.1433C6.27961 11.1433 4.86751 9.12046 4.57172 7.96943C4.27593 6.81824 4.36751 6.60229 5.43062 5.55183C6.49373 4.50137 5.99498 4.56698 7.87312 3.43526C9.75109 2.30347 10.5011 1.9087 11.0863 1.98728C11.6718 2.06587 12.0902 2.45507 12.0902 2.45507C12.0902 2.45507 12.3885 1.81213 12.6341 1.58252C12.8798 1.35291 14.6459 0.887292 16.2974 0.565694C17.949 0.244097 19.3203 -0.00657156 19.7236 0.326681C20.1272 0.659851 20.1494 1.8192 20.1494 1.8192C20.1494 1.8192 20.4402 1.92751 21.5608 2.01642C22.6815 2.10542 23.7732 2.17651 23.7732 2.17651C23.7732 2.17651 23.9846 1.21763 24.7736 0.971209C25.5627 0.724787 27.6689 1.20306 29.0514 2.55797C30.4338 3.91279 31.4969 4.66896 31.8761 5.62751C32.2556 6.58606 32.4647 6.88118 32.1523 7.37719C31.8398 7.8732 30.2284 9.65551 30.2284 9.65551C30.2284 9.65551 30.7507 9.78838 31.1169 10.7664C31.4834 11.7444 31.427 14.251 31.427 14.251C31.427 14.251 31.9227 14.4408 33.1585 14.5976C34.3941 14.7543 35.3743 14.5023 35.7258 16.2818C36.0773 18.0612 35.8633 18.6868 35.416 20.8095C34.9684 22.9323 34.1492 23.8717 33.7866 24.3228C33.4239 24.7739 33.2421 24.8534 32.5806 24.7642C31.9191 24.6749 30.4451 24.3726 29.9347 23.9891C29.4242 23.6055 28.2607 23.1272 28.2607 23.1272C28.2607 23.1272 27.953 22.9743 28.8252 24.0398C29.6975 25.1056 30.6772 26.2784 30.7007 26.3939C30.7243 26.5096 30.9467 27.136 29.0016 28.917C27.0567 30.6981 26.9031 30.8257 25.3853 31.781C23.8677 32.7362 24.0218 33.0679 23.2613 32.8421C22.5009 32.6163 21.8327 31.3847 21.8327 31.3847L20.7458 31.937C20.7458 31.937 20.9354 31.9186 20.7889 32.4953C20.6425 33.0719 20.5877 33.5976 20.1715 33.8144C19.7551 34.0312 17.9659 34.9494 16.066 34.7536C14.1663 34.5576 12.7523 34.3252 12.2522 33.992C11.7521 33.6589 10.8436 32.8735 10.9583 32.0643C11.0728 31.2551 11.405 29.2129 11.405 29.2129C11.405 29.2129 10.7555 30.1591 9.77248 30.9266C8.78946 31.6941 8.44979 31.8965 8.07616 31.8892C7.70254 31.8822 6.71818 31.4061 6.14433 30.5729C5.57048 29.7398 4.96566 28.9587 4.51037 28.5288C4.05507 28.0991 3.43393 27.5268 3.44667 26.8619C3.45941 26.1969 4.01527 25.3348 4.01527 25.3348C4.01527 25.3348 3.78767 26.0109 2.84344 23.8069C1.89921 21.6029 1.36757 20.0302 1.36757 20.0302C1.36757 20.0302 1.02615 20.0322 0.846999 20.0604C0.667843 20.0885 -0.148513 17.966 0.263245 15.6377C0.675003 13.3095 1.25876 11.8651 1.75235 11.1154C2.24595 10.3657 2.62099 10.2029 3.70009 10.4824C4.77902 10.7621 6.27961 11.1433 6.27961 11.1433Z"
        fill="#FF87AB"
      />
      <path
        fill-rule="evenodd"
        clip-rule="evenodd"
        d="M14.7037 9.61995C14.6986 9.64123 14.6915 9.66773 14.6834 9.69055C14.2317 10.8952 13.999 12.1834 13.5069 13.3867C13.1388 14.286 12.4067 15.9354 11.9518 17.4706C11.6579 18.4637 11.4755 19.4068 11.605 20.0536C11.6481 20.2691 11.8658 20.4515 12.1231 20.6154C12.5668 20.8976 13.1481 21.0985 13.4462 21.1798C15.6091 21.7697 17.0486 22.5056 19.3297 22.0493C19.5127 22.0125 19.6523 22.0228 19.779 22.0257C19.9067 22.0284 20.0144 22.0168 20.1732 21.8645C20.2502 21.7906 20.3728 21.793 20.4467 21.8701C20.5206 21.9471 20.5177 22.0694 20.4407 22.1431C20.2132 22.3612 20.0434 22.404 19.867 22.4113C19.737 22.4164 19.6001 22.3891 19.4055 22.428C17.0569 22.8978 15.5715 22.1597 13.3446 21.5523C13.0229 21.4647 12.3953 21.246 11.9158 20.9409C11.5574 20.7131 11.2864 20.4293 11.2264 20.1289C11.0881 19.4363 11.2668 18.4242 11.5815 17.3608C12.0405 15.8116 12.7783 14.1473 13.1496 13.2404C13.6404 12.0407 13.8715 10.7558 14.3218 9.55497C14.3348 9.52054 14.3358 9.49327 14.3418 9.47238C14.3646 9.39443 14.4002 9.33408 14.5112 9.29094C14.6106 9.25245 14.7224 9.30155 14.7611 9.40098C14.7919 9.48028 14.7663 9.5685 14.7037 9.61995Z"
        fill="#87425F"
      />
      <path
        fill-rule="evenodd"
        clip-rule="evenodd"
        d="M20.083 21.9717C20.0869 21.9286 20.1058 21.7011 20.1165 21.6365C20.1609 21.3677 20.2832 21.0781 20.3555 20.8122C20.5542 20.0827 20.9345 19.3641 21.2372 18.6716C21.5561 17.9428 22.4534 15.3375 22.8976 13.5117C23.08 12.7616 23.1924 12.1506 23.1371 11.8754C23.1195 11.7868 23.0601 11.7096 22.9811 11.6373C22.8807 11.5448 22.7486 11.4632 22.6024 11.3885C22.1163 11.1407 21.4803 10.9734 21.1702 10.8407C20.3197 10.4763 19.5399 9.98287 18.6648 9.67029C18.0302 9.44379 17.3537 9.49061 16.7065 9.34129C16.4071 9.27204 15.9933 9.16387 15.5993 9.16155C15.2585 9.15923 14.9289 9.23448 14.7385 9.53429C14.6815 9.62443 14.5621 9.65132 14.472 9.59426C14.3821 9.5372 14.3552 9.41748 14.412 9.32792C14.6285 8.9871 14.9622 8.83353 15.3363 8.78943C15.8326 8.73101 16.4026 8.87492 16.7929 8.96487C17.4545 9.11767 18.1452 9.07532 18.7944 9.30705C19.677 9.62234 20.4646 10.1181 21.3221 10.4858C21.6372 10.6208 22.283 10.7926 22.7774 11.0448C23.1654 11.2425 23.4556 11.5011 23.5155 11.7996C23.5763 12.1027 23.4734 12.7781 23.2724 13.6031C22.8225 15.4517 21.9136 18.0888 21.5906 18.827C21.2954 19.5024 20.9221 20.2024 20.7281 20.9142C20.6585 21.1682 20.54 21.4439 20.4973 21.7008C20.4857 21.7685 20.4685 22.0011 20.4652 22.0275C20.4507 22.1425 20.3678 22.1747 20.3608 22.1783C20.3144 22.2015 20.2687 22.2044 20.2252 22.1932C20.188 22.1833 20.1439 22.163 20.11 22.1092C20.1058 22.1032 20.0799 22.0711 20.0799 22.0044C20.0803 21.9926 20.0811 21.982 20.083 21.9717ZM20.4437 21.9133C20.458 21.9402 20.4666 21.971 20.4666 22.0038C20.4666 21.957 20.453 21.9282 20.4437 21.9133Z"
        fill="#87425F"
      />
      <path
        fill-rule="evenodd"
        clip-rule="evenodd"
        d="M14.698 10.5911C14.9138 10.5536 15.2077 10.6256 15.5168 10.7277C16.0317 10.8981 16.5818 11.1631 16.9216 11.2815C17.9449 11.637 19.0167 11.7642 20.0589 12.0246C20.8119 12.2126 21.4952 12.6156 22.2254 12.8593C22.3266 12.8927 22.4363 12.8378 22.4697 12.7372C22.5036 12.636 22.4489 12.5264 22.3477 12.4925C21.6082 12.2461 20.9152 11.8403 20.1529 11.6495C19.1217 11.3919 18.0611 11.2685 17.0491 10.9164C16.7073 10.7975 16.1555 10.5321 15.6383 10.3608C15.2595 10.2354 14.8965 10.1644 14.6313 10.2108C14.5264 10.2294 14.4562 10.3296 14.4748 10.4346C14.4928 10.5397 14.5929 10.6097 14.698 10.5911Z"
        fill="#87425F"
      />
      <path
        fill-rule="evenodd"
        clip-rule="evenodd"
        d="M11.7309 18.8427C12.1952 19.4041 13.1389 19.7935 13.7964 20.0646C15.5104 20.7703 18.1619 21.3886 20.0705 21.1157C20.1757 21.1008 20.2491 21.0029 20.2342 20.8975C20.2189 20.7921 20.1215 20.7182 20.0157 20.7337C18.168 20.9977 15.6028 20.3905 13.9436 19.7072C13.3368 19.4574 12.4571 19.1143 12.0286 18.5963C11.9607 18.5141 11.8386 18.5031 11.7564 18.5708C11.6742 18.6385 11.6632 18.7605 11.7309 18.8427Z"
        fill="#87425F"
      />
      <path
        fill-rule="evenodd"
        clip-rule="evenodd"
        d="M12.0274 14.9591C11.8878 14.974 11.7401 14.9233 11.5943 14.8612C11.4165 14.785 11.2425 14.6885 11.0883 14.6235C9.99042 14.1635 8.97641 13.4838 8.08471 12.6989C6.83729 11.6013 6.10016 10.587 5.26687 9.17035C5.02083 8.75216 4.63496 8.32508 4.57287 7.82604C4.46977 7.00203 4.89506 6.30628 5.47012 5.7022C6.08058 5.06157 6.86286 4.52574 7.4385 4.06538C7.92826 3.67311 8.37387 3.34545 8.92765 3.04544C9.38762 2.79611 10.3844 2.19959 10.8927 2.14852C11.4005 2.09804 11.8426 2.49708 12.1713 2.84776C12.9492 3.67834 13.4812 4.71761 14.109 5.6596C14.5352 6.2983 14.8731 7.01089 15.2159 7.6966C15.2901 7.84515 15.4483 8.07765 15.5634 8.29912C15.6228 8.41421 15.6749 8.52331 15.6749 8.60919C15.6749 8.71558 15.7612 8.80243 15.8679 8.80243C15.9747 8.80243 16.0612 8.71558 16.0612 8.60919C16.0612 8.47553 15.9988 8.3001 15.906 8.12137C15.7923 7.90183 15.635 7.6711 15.5612 7.5239C15.2114 6.82427 14.8652 6.09734 14.4302 5.44549C13.7909 4.48589 13.2458 3.42941 12.4529 2.58355C12.0477 2.15124 11.4803 1.70188 10.854 1.76455C10.3099 1.8189 9.23584 2.43903 8.74376 2.70557C8.16909 3.01699 7.70523 3.35646 7.1969 3.76343C6.48896 4.32979 5.47926 5.01184 4.83128 5.85209C4.37402 6.44494 4.09454 7.11535 4.18932 7.87378C4.25799 8.42389 4.66276 8.90534 4.93394 9.36628C5.78948 10.8211 6.54853 11.8619 7.82942 12.989C8.75226 13.8014 9.80233 14.5033 10.9387 14.9801C11.1261 15.0587 11.3416 15.1831 11.559 15.2628C11.7308 15.3254 11.9046 15.3608 12.0688 15.343C12.1746 15.3314 12.2515 15.2363 12.2399 15.1305C12.2283 15.0245 12.1332 14.9475 12.0274 14.9591Z"
        fill="#87425F"
      />
      <path
        fill-rule="evenodd"
        clip-rule="evenodd"
        d="M10.2494 2.39946C10.8069 3.46448 11.2976 4.57343 11.9943 5.56359C12.4887 6.26651 13.023 6.95628 13.4882 7.67487C13.7681 8.10718 14.1647 8.47061 14.3968 8.93484C14.4446 9.03001 14.5606 9.06908 14.6557 9.02131C14.7509 8.97353 14.7898 8.85745 14.742 8.76229C14.5035 8.28549 14.1001 7.90911 13.8126 7.46519C13.3447 6.74235 12.8076 6.04829 12.3099 5.34131C11.6228 4.36508 11.1413 3.27046 10.5912 2.22034C10.5415 2.12556 10.425 2.08942 10.3302 2.13874C10.2362 2.18826 10.1997 2.30468 10.2494 2.39946Z"
        fill="#87425F"
      />
      <path
        fill-rule="evenodd"
        clip-rule="evenodd"
        d="M5.44036 6.10961C5.44133 6.11522 5.45059 6.1603 5.46161 6.19183C5.49546 6.29067 5.55782 6.41833 5.63577 6.56282C5.95841 7.16167 6.54425 8.01681 6.7017 8.26594C7.69554 9.83929 9.05998 11.3722 10.5502 12.49C11.2057 12.9811 11.9048 13.6367 12.6926 13.8995C12.7938 13.9334 12.8485 14.0429 12.8146 14.1436C12.7812 14.2448 12.6716 14.2996 12.5705 14.2657C11.7445 13.9905 11.0051 13.314 10.318 12.7988C8.79166 11.654 7.3934 10.084 6.37539 8.47212C6.21581 8.22008 5.62295 7.35297 5.29567 6.74619C5.18986 6.54986 5.11134 6.3775 5.07749 6.25738C5.05525 6.17807 5.05043 6.11252 5.05662 6.06532C5.07055 5.95951 5.16805 5.88521 5.27347 5.89914C5.37734 5.91229 5.45061 6.00594 5.44036 6.10961Z"
        fill="#87425F"
      />
      <path
        fill-rule="evenodd"
        clip-rule="evenodd"
        d="M11.7282 15.2674C10.8133 15.1606 9.80035 14.9458 8.86668 15.039C7.99915 15.1258 7.13414 15.2628 6.26739 15.3589C5.52269 15.4415 4.75033 15.5446 4.04315 15.8098C3.60543 15.9736 2.92341 16.1063 2.36228 16.3562C1.9464 16.5409 1.59674 16.7916 1.4213 17.1431C1.13115 17.723 1.16594 18.546 1.18083 19.1718C1.22784 21.0877 2.01466 22.8438 3.07252 24.3901C3.27407 24.6843 3.59149 25.2052 3.95494 25.5881C4.22884 25.8769 4.5339 26.0845 4.83236 26.1114C5.75656 26.1953 6.79066 25.6259 7.60344 25.2777C9.35455 24.527 10.858 23.691 12.4287 22.6442C12.5942 22.5337 12.7801 22.4479 12.9556 22.349C13.1571 22.2363 13.3455 22.1072 13.4914 21.9246C13.5581 21.8415 13.5441 21.7198 13.4612 21.653C13.378 21.5867 13.2563 21.6 13.19 21.6832C13.0755 21.8262 12.9244 21.9236 12.7662 22.0124C12.5825 22.1155 12.3882 22.207 12.2147 22.3225C10.6636 23.3564 9.18005 24.1817 7.45138 24.9226C6.6914 25.2485 5.73239 25.8056 4.86796 25.727C4.64842 25.7071 4.4368 25.5344 4.23564 25.3226C3.8865 24.9549 3.58441 24.4541 3.39175 24.1719C2.37509 22.6863 1.61238 21.0026 1.56731 19.1625C1.55339 18.5938 1.50304 17.8431 1.76688 17.3158C1.90518 17.039 2.19167 16.8549 2.51953 16.709C3.07332 16.4626 3.74743 16.3334 4.17916 16.1715C4.85635 15.9175 5.59701 15.8224 6.30999 15.7431C7.17577 15.6469 8.03924 15.5105 8.90502 15.4237C9.8122 15.3332 10.7954 15.5477 11.6834 15.6512C11.7892 15.6637 11.8854 15.5875 11.898 15.4817C11.91 15.3755 11.834 15.2798 11.7282 15.2674Z"
        fill="#87425F"
      />
      <path
        fill-rule="evenodd"
        clip-rule="evenodd"
        d="M4.17358 25.2478C4.70473 25.0302 5.27459 24.9034 5.80497 24.6788C6.8489 24.2358 7.81368 23.6037 8.86129 23.1604C10.106 22.6339 11.3594 22.1418 12.5682 21.5375C12.6633 21.4897 12.7024 21.3737 12.6546 21.2779C12.6066 21.1828 12.4906 21.1443 12.3956 21.1917C11.1942 21.7928 9.9478 22.2816 8.71102 22.8049C7.66322 23.2482 6.69817 23.8805 5.65404 24.3232C5.1254 24.5474 4.5567 24.6738 4.0269 24.891C3.92806 24.9314 3.88126 25.0442 3.92169 25.1426C3.96173 25.2415 4.07455 25.2887 4.17358 25.2478Z"
        fill="#87425F"
      />
      <path
        fill-rule="evenodd"
        clip-rule="evenodd"
        d="M1.62764 18.6595C2.19168 18.5927 3.0101 18.1572 3.58478 17.9831C5.75407 17.3272 9.07287 16.1378 11.3921 16.1378C11.4989 16.1378 11.5853 16.0513 11.5853 15.9445C11.5853 15.8377 11.499 15.7515 11.3921 15.7515C9.04038 15.7515 5.67281 16.9482 3.47295 17.6134C2.91685 17.7815 2.1274 18.2109 1.58155 18.2759C1.47574 18.2885 1.4002 18.3846 1.41258 18.4904C1.42574 18.5964 1.52183 18.672 1.62764 18.6595Z"
        fill="#87425F"
      />
      <path
        fill-rule="evenodd"
        clip-rule="evenodd"
        d="M6.58878 11.25C5.50945 10.933 4.47562 10.3359 3.35509 10.2115C3.19029 10.1929 3.01154 10.1562 2.8361 10.1475C2.62449 10.1368 2.41828 10.1651 2.23627 10.2784C1.97437 10.4422 1.77857 10.6995 1.61745 10.984C1.4716 11.2421 1.35419 11.5216 1.23059 11.7579C1.03465 12.1336 0.888486 12.5379 0.768367 12.9437C0.562753 13.6367 0.39501 14.3377 0.23814 15.0443C-0.0347872 16.2718 -0.0802783 17.762 0.138876 19.0028C0.178722 19.2285 0.215893 19.602 0.351099 19.8662C0.469477 20.098 0.653845 20.2552 0.934123 20.2552C1.04051 20.2552 1.12736 20.1684 1.12736 20.062C1.12736 19.9552 1.04051 19.869 0.934123 19.869C0.77261 19.869 0.701972 19.7311 0.649553 19.5829C0.572181 19.3643 0.54881 19.1034 0.519215 18.9359C0.308959 17.7419 0.353074 16.3083 0.615363 15.1282C0.770299 14.43 0.936073 13.7379 1.13898 13.0531C1.25175 12.6711 1.389 12.2905 1.57353 11.9367C1.69462 11.7042 1.81034 11.4283 1.95425 11.1743C2.08249 10.9473 2.2328 10.7366 2.44131 10.6061C2.55447 10.5355 2.68503 10.5262 2.81636 10.5331C2.98445 10.5415 3.15522 10.5776 3.31306 10.5954C4.41135 10.7171 5.42259 11.31 6.48045 11.6204C6.58258 11.6506 6.68999 11.5922 6.71997 11.4895C6.74995 11.3873 6.6911 11.2802 6.58878 11.25Z"
        fill="#87425F"
      />
      <path
        fill-rule="evenodd"
        clip-rule="evenodd"
        d="M0.448533 19.0476C0.631516 19.1238 0.81122 19.113 1.00426 19.1408C1.10968 19.1557 1.20753 19.0824 1.223 18.977C1.2379 18.8712 1.16445 18.7733 1.05923 18.7584C0.899071 18.7358 0.748185 18.7538 0.596343 18.6911C0.497889 18.6503 0.385077 18.6971 0.344263 18.7956C0.303257 18.8939 0.350078 19.0072 0.448533 19.0476Z"
        fill="#87425F"
      />
      <path
        fill-rule="evenodd"
        clip-rule="evenodd"
        d="M1.82462 11.995C3.01479 12.701 4.48563 12.7467 5.81332 13.0123C5.92338 13.0341 6.04037 13.0335 6.15721 13.0322C6.24367 13.0312 6.3295 13.0295 6.40919 13.0494C6.71558 13.126 7.63805 13.3478 7.89995 13.3478C8.00614 13.3478 8.09319 13.261 8.09319 13.1542C8.09319 13.0478 8.00633 12.9615 7.89995 12.9615C7.65429 12.9615 6.79051 12.7461 6.50269 12.6747C6.39263 12.6469 6.27325 12.6445 6.15352 12.6459C6.06338 12.6469 5.97341 12.6502 5.88888 12.6333C4.60297 12.3761 3.17457 12.3465 2.02155 11.6631C1.93005 11.6083 1.81126 11.6389 1.7569 11.7304C1.70236 11.8223 1.73274 11.9407 1.82462 11.995Z"
        fill="#87425F"
      />
      <path
        fill-rule="evenodd"
        clip-rule="evenodd"
        d="M3.7227 25.4183C3.41631 25.8268 3.27469 26.2148 3.24819 26.5838C3.20873 27.1339 3.42634 27.6475 3.77219 28.1349C4.30412 28.8847 5.14497 29.5736 5.68154 30.2634C5.96607 30.6298 6.27802 31.0619 6.64282 31.4199C7.03142 31.8019 7.48037 32.0987 8.01287 32.1706C8.25195 32.2027 8.56075 32.1093 8.88377 31.9329C9.55826 31.5642 10.3172 30.8443 10.6056 30.5035C11.0832 29.9395 11.5921 29.4261 12.0043 28.8081C12.8432 27.549 13.4291 26.0983 14.104 24.7484C14.3096 24.3375 14.6419 23.8319 14.8755 23.3209C15.0426 22.9551 15.1588 22.5855 15.1588 22.2426C15.1588 22.1358 15.0719 22.0493 14.9655 22.0493C14.8587 22.0493 14.7725 22.1356 14.7725 22.2426C14.7725 22.535 14.6666 22.8483 14.5241 23.1607C14.2923 23.6671 13.9624 24.1681 13.7585 24.5753C13.0904 25.9113 12.513 27.3481 11.683 28.5936C11.2791 29.1994 10.7788 29.7011 10.3107 30.2541C10.0786 30.5284 9.52143 31.0646 8.96764 31.4306C8.6334 31.6515 8.30749 31.8205 8.06435 31.7876C7.61501 31.7273 7.24175 31.4669 6.91351 31.1447C6.56127 30.7988 6.26127 30.3801 5.98641 30.0265C5.45313 29.3408 4.6161 28.657 4.08726 27.9119C3.60543 27.2322 3.39613 26.4978 4.03154 25.6502C4.09576 25.5653 4.0786 25.444 3.9931 25.38C3.90799 25.3157 3.78672 25.3333 3.7227 25.4183Z"
        fill="#87425F"
      />
      <path
        fill-rule="evenodd"
        clip-rule="evenodd"
        d="M14.1218 22.1342C14.1139 22.0344 14.1836 21.9438 14.284 21.9276C14.3892 21.9109 14.4882 21.9829 14.5055 22.0877C14.5157 22.1531 14.5017 22.2406 14.4599 22.3334C14.4052 22.4564 14.2975 22.6023 14.2623 22.6765C14.0412 23.1408 13.7785 23.5785 13.5361 24.0311C12.5292 25.9108 10.8162 27.671 9.39255 29.2587C9.18133 29.4945 8.52497 30.2823 7.97622 30.734C7.7 30.9611 7.43772 31.0988 7.25861 31.0988C7.15242 31.0988 7.06537 31.0119 7.06537 30.9057C7.06537 30.799 7.15222 30.7125 7.25861 30.7125C7.30774 30.7125 7.36539 30.685 7.43135 30.6481C7.52381 30.5964 7.62475 30.5228 7.73075 30.4355C8.26364 29.9968 8.90002 29.2299 9.10524 29.0011C10.509 27.4353 12.2027 25.7023 13.1959 23.8487C13.4356 23.4017 13.695 22.969 13.9136 22.5104C13.9401 22.4547 14.0046 22.3605 14.0607 22.2647C14.0857 22.221 14.1168 22.1477 14.1218 22.1342Z"
        fill="#87425F"
      />
      <path
        fill-rule="evenodd"
        clip-rule="evenodd"
        d="M4.07974 27.4349C4.23294 27.1145 4.55331 26.9014 4.82295 26.6855C4.90651 26.6192 4.91981 26.4975 4.85308 26.4143C4.78673 26.3307 4.6651 26.3174 4.58154 26.3841C4.26819 26.6348 3.90939 26.8958 3.73104 27.2681C3.6852 27.3642 3.72596 27.4797 3.82209 27.5258C3.91803 27.5718 4.03371 27.5308 4.07974 27.4349Z"
        fill="#87425F"
      />
      <path
        fill-rule="evenodd"
        clip-rule="evenodd"
        d="M13.9512 24.935C14.0086 26.084 14.3707 27.225 14.5806 28.3653C14.7165 29.1038 14.8316 29.7978 15.0972 30.5054C15.2308 30.8628 15.3638 31.2362 15.5346 31.5777C15.8864 32.282 16.1888 32.6859 16.5857 32.8753C16.9836 33.0646 17.489 33.0447 18.2712 32.8493C18.6499 32.7546 19.0289 32.6557 19.3976 32.5331C20.0341 32.3209 20.6615 32.0758 21.2942 31.8483C22.3003 31.4876 23.3099 30.9729 24.1883 30.3618C24.6804 30.0193 25.1948 29.6427 25.3211 29.0119C25.5258 27.9887 24.9088 27.1132 24.3976 26.2962C23.2469 24.4546 22.304 22.3414 20.761 20.7984C20.6858 20.7231 20.5633 20.7231 20.4879 20.7984C20.4122 20.874 20.4122 20.9961 20.4879 21.0719C22.0105 22.5946 22.9343 24.6836 24.0703 26.501C24.3084 26.8817 24.577 27.2743 24.7611 27.6914C24.9335 28.0804 25.0313 28.4912 24.9421 28.9365C24.8363 29.4647 24.3801 29.7582 23.9677 30.045C23.1168 30.6369 22.1382 31.1356 21.1637 31.4851C20.5337 31.7112 19.9089 31.9553 19.2752 32.1665C18.9161 32.2863 18.5465 32.3824 18.1774 32.4749C17.5155 32.64 17.0884 32.6871 16.7512 32.5265C16.4137 32.3658 16.1793 32.0042 15.8799 31.4054C15.7151 31.0754 15.5879 30.715 15.4587 30.3701C15.2015 29.6844 15.0924 29.0113 14.9607 28.2955C14.7537 27.172 14.3934 26.0486 14.3367 24.9165C14.3311 24.8097 14.2405 24.7281 14.1337 24.7331C14.0275 24.7381 13.9454 24.8286 13.9512 24.935Z"
        fill="#87425F"
      />
      <path
        fill-rule="evenodd"
        clip-rule="evenodd"
        d="M20.2108 22.4137C20.6895 23.552 21.4596 24.5 22.0988 25.543C22.888 26.8306 23.5525 28.209 24.1132 29.6113C24.1533 29.7102 24.2656 29.7585 24.3643 29.719C24.4631 29.6792 24.5115 29.5668 24.472 29.468C23.903 28.0451 23.2289 26.6472 22.4281 25.341C21.7991 24.3146 21.0377 23.3843 20.5669 22.2641C20.5257 22.1657 20.4123 22.1193 20.3143 22.1606C20.2158 22.202 20.1694 22.3152 20.2108 22.4137Z"
        fill="#87425F"
      />
      <path
        fill-rule="evenodd"
        clip-rule="evenodd"
        d="M14.7069 23.7242C14.6847 23.6917 14.672 23.6522 14.6734 23.6101C14.678 23.4406 14.8014 23.4062 14.8256 23.4006C14.8577 23.3926 15.0131 23.3816 15.0657 23.5515C15.1005 23.6633 15.1827 24.1911 15.196 24.283C15.2889 24.9325 15.4096 25.5573 15.5995 26.1863C15.9829 27.4564 16.3868 28.7098 16.8998 29.9331C17.1588 30.5509 17.4054 31.3354 17.8922 31.8224C17.9679 31.8977 17.9679 32.0202 17.8922 32.0954C17.817 32.171 17.6945 32.171 17.6191 32.0954C17.0984 31.5745 16.8206 30.7431 16.5434 30.0826C16.0254 28.8468 15.6167 27.5808 15.2293 26.2978C15.0339 25.6502 14.909 25.0068 14.8134 24.3378C14.8038 24.2697 14.7338 23.8757 14.7069 23.7242Z"
        fill="#87425F"
      />
      <path
        fill-rule="evenodd"
        clip-rule="evenodd"
        d="M11.3235 29.3585C11.176 29.9235 10.8984 30.9503 10.8454 31.8607C10.8078 32.5143 10.8941 33.1091 11.187 33.467C11.7208 34.1192 12.9126 34.4534 13.724 34.589C14.1409 34.6583 14.5542 34.8119 14.9815 34.8633C16.463 35.0407 17.9308 34.921 19.3276 34.3832C19.58 34.2863 19.8708 34.1859 20.1311 34.0447C20.4193 33.8888 20.6706 33.683 20.8163 33.3915C21.0143 32.9956 20.9536 32.6033 20.9536 32.1739C20.9536 32.0672 20.8673 31.9809 20.7605 31.9809C20.6542 31.9809 20.5673 32.0672 20.5673 32.1739C20.5673 32.5416 20.6402 32.8795 20.4708 33.2188C20.3607 33.4389 20.1648 33.5875 19.947 33.7049C19.7013 33.8382 19.4267 33.931 19.1886 34.0229C17.851 34.5372 16.4453 34.6496 15.0271 34.4798C14.6056 34.4291 14.1984 34.2759 13.787 34.2078C13.0545 34.0857 11.9669 33.8109 11.4854 33.2223C11.2421 32.9252 11.199 32.4257 11.2305 31.883C11.2816 30.9996 11.5532 30.0042 11.6967 29.4564C11.7238 29.3533 11.6618 29.2475 11.5587 29.2207C11.4558 29.1938 11.3506 29.2554 11.3235 29.3585Z"
        fill="#87425F"
      />
      <path
        fill-rule="evenodd"
        clip-rule="evenodd"
        d="M19.3779 32.4527C19.3719 32.9796 19.4554 33.5005 19.4554 34.0278C19.4554 34.1341 19.5423 34.221 19.6487 34.221C19.7554 34.221 19.8419 34.1341 19.8419 34.0278C19.8419 33.5022 19.7584 32.9822 19.7644 32.4573C19.7657 32.3509 19.6801 32.2633 19.5734 32.2623C19.467 32.261 19.3792 32.3463 19.3779 32.4527Z"
        fill="#87425F"
      />
      <path
        fill-rule="evenodd"
        clip-rule="evenodd"
        d="M12.4076 27.6938C12.4397 29.7099 12.0973 31.915 12.5933 33.8986C12.6188 34.0021 12.7236 34.0648 12.8271 34.0392C12.9306 34.0131 12.9937 33.9083 12.9678 33.8048C12.479 31.8494 12.8252 29.6755 12.7937 27.6876C12.7918 27.5809 12.7041 27.496 12.5973 27.4977C12.4909 27.4993 12.4056 27.5874 12.4076 27.6938Z"
        fill="#87425F"
      />
      <path
        fill-rule="evenodd"
        clip-rule="evenodd"
        d="M17.5891 9.02765C17.6094 9.06614 17.6173 9.11162 17.6076 9.15766C17.5858 9.26211 17.4837 9.32883 17.3792 9.30717C17.3268 9.29653 17.2253 9.24042 17.2057 9.09032C17.1895 8.96536 17.2173 8.6619 17.2123 8.59962C17.1788 8.21759 17.094 7.84195 17.0601 7.45935C16.9729 6.46919 16.8525 5.15716 17.1144 4.03469C17.2972 3.25073 17.6645 2.55845 18.3367 2.11047C19.2429 1.50659 20.5481 1.66672 21.5568 1.77485C22.1516 1.83849 22.8527 1.88261 23.5132 2.03581C24.2067 2.19693 24.8548 2.47875 25.3078 3.00739C25.5349 3.27258 25.6239 3.60062 25.6345 3.94879C25.649 4.41669 25.5188 4.921 25.4527 5.31927C25.1749 6.98546 24.8655 8.58971 24.1446 10.1346C24.0597 10.317 24.0047 10.5325 23.9337 10.7391C23.8505 10.9809 23.7451 11.2093 23.5739 11.3811C23.4983 11.4563 23.3763 11.4563 23.3004 11.3811C23.2252 11.3055 23.2252 11.1828 23.3004 11.1076C23.4318 10.9766 23.5047 10.7979 23.5684 10.6132C23.644 10.3936 23.7044 10.1652 23.7943 9.97118C24.5005 8.45876 24.7999 6.88679 25.0719 5.25561C25.1243 4.93858 25.2224 4.55194 25.245 4.17301C25.2651 3.83877 25.2287 3.50916 25.0144 3.25848C24.6147 2.79231 24.0376 2.5542 23.4258 2.41223C22.7811 2.26271 22.0958 2.22092 21.5155 2.15883C21.0396 2.10815 20.4932 2.03949 19.959 2.05574C19.4526 2.07102 18.9563 2.16151 18.551 2.43173C17.9624 2.824 17.6504 3.43644 17.4902 4.12253C17.2382 5.20514 17.3603 6.47055 17.4448 7.42511C17.4786 7.8081 17.5636 8.18353 17.597 8.56613C17.6017 8.6201 17.5914 8.95608 17.5891 9.02765ZM17.48 8.93519L17.4827 8.93618L17.4813 8.93575L17.48 8.93519ZM17.469 8.9315L17.4723 8.93249L17.4699 8.93212L17.469 8.9315Z"
        fill="#87425F"
      />
      <path
        fill-rule="evenodd"
        clip-rule="evenodd"
        d="M18.6926 2.25181C18.6913 2.16322 18.7516 2.08239 18.8412 2.0615C18.9187 2.04293 18.9701 2.06652 19.0046 2.08974C19.046 2.11759 19.0758 2.15743 19.0878 2.21275C19.0944 2.24061 19.0967 2.28239 19.0804 2.33171C19.0715 2.3586 19.0359 2.42859 19.0313 2.43749C18.9611 2.64833 18.8914 2.86826 18.833 3.08219C18.6987 3.5733 18.6092 4.08997 18.5601 4.59656C18.463 5.60122 18.3427 6.5987 18.3837 7.61207C18.4022 8.0852 18.5103 8.57112 18.5103 9.03922C18.5103 9.1456 18.4235 9.23227 18.3171 9.23227C18.2103 9.23227 18.1239 9.14541 18.1239 9.03922C18.1239 8.57634 18.0161 8.09546 17.9972 7.62756C17.9558 6.5964 18.0765 5.58127 18.1753 4.55939C18.2264 4.03114 18.3206 3.49265 18.4599 2.98103C18.5206 2.75821 18.5931 2.52978 18.6659 2.31159C18.6703 2.29863 18.682 2.27405 18.6926 2.25181ZM18.9171 2.4398L18.913 2.44023H18.9141L18.9171 2.4398ZM18.921 2.43924C18.9243 2.43827 18.927 2.43788 18.9303 2.4373L18.921 2.43924Z"
        fill="#87425F"
      />
      <path
        fill-rule="evenodd"
        clip-rule="evenodd"
        d="M24.3005 2.91334C24.3851 4.88263 23.3568 7.38195 22.7961 9.28915C22.6522 9.77794 22.3584 10.2561 22.2595 10.7505C22.2386 10.8549 22.3063 10.9565 22.4107 10.9776C22.5156 10.9985 22.6174 10.9308 22.6383 10.8263C22.7348 10.3426 23.0259 9.87658 23.1665 9.39842C23.7381 7.45428 24.7727 4.90371 24.6864 2.89728C24.6818 2.79051 24.5917 2.70795 24.4849 2.71259C24.3785 2.71704 24.2959 2.80695 24.3005 2.91334Z"
        fill="#87425F"
      />
      <path
        fill-rule="evenodd"
        clip-rule="evenodd"
        d="M12.3128 2.26985C12.6424 1.80369 13.163 1.50155 13.7445 1.28666C14.664 0.947383 15.7369 0.828024 16.5261 0.686821C17.3176 0.545812 18.0419 0.386054 18.8496 0.386054C19.2525 0.386054 19.5055 0.411197 19.6597 0.53325C19.7595 0.612168 19.8039 0.734245 19.8324 0.905042C19.8695 1.12555 19.8728 1.41434 19.8728 1.7894C19.8728 1.89617 19.9596 1.98302 20.066 1.98302C20.1728 1.98302 20.2591 1.89617 20.2591 1.7894C20.2591 1.30099 20.2488 0.947783 20.1825 0.695746C20.1281 0.488198 20.0372 0.339262 19.8999 0.230168C19.6983 0.0709768 19.3763 0 18.8498 0C18.0185 0 17.2728 0.1615 16.458 0.306765C15.6503 0.451256 14.5524 0.57695 13.611 0.924734C12.9528 1.16749 12.3705 1.51996 11.9978 2.04724C11.9361 2.13409 11.957 2.25477 12.0438 2.31609C12.1303 2.3776 12.2509 2.3567 12.3128 2.26985Z"
        fill="#87425F"
      />
      <path
        fill-rule="evenodd"
        clip-rule="evenodd"
        d="M18.3725 0.501127C18.4802 0.924928 18.6496 1.31819 18.7359 1.75128C18.7568 1.85573 18.859 1.92399 18.9634 1.9031C19.0679 1.88221 19.1357 1.78008 19.1146 1.67563C19.0268 1.23558 18.8562 0.835778 18.7466 0.405594C18.7201 0.302497 18.6153 0.239832 18.5118 0.266331C18.4087 0.292251 18.346 0.397643 18.3725 0.501127Z"
        fill="#87425F"
      />
      <path
        fill-rule="evenodd"
        clip-rule="evenodd"
        d="M23.9992 2.08086C23.9996 2.08685 23.9997 2.09342 23.9997 2.09942C23.9968 2.20619 23.9081 2.29016 23.8013 2.28784C23.7628 2.28687 23.5861 2.23812 23.6134 2.0385C23.6267 1.94101 23.7112 1.64819 23.8942 1.37236C24.0855 1.08415 24.3803 0.81993 24.7902 0.78608C25.9535 0.688979 27.4372 1.33658 28.3875 1.98476C29.0119 2.41049 29.7779 2.9122 30.3354 3.42111C30.7884 3.83466 31.683 4.9531 32.1217 5.92836C32.3236 6.37634 32.4263 6.79879 32.3729 7.11911C32.3116 7.48546 32.0824 7.88235 31.7782 8.25644C31.346 8.78798 30.7667 9.27775 30.3716 9.57389C30.2866 9.63752 30.1656 9.62033 30.1013 9.53483C30.0373 9.44992 30.0549 9.32864 30.1398 9.26462C30.5154 8.98279 31.0673 8.51815 31.4781 8.01253C31.7358 7.69589 31.9401 7.36532 31.9915 7.05526C32.0509 6.69877 31.8505 6.19838 31.5685 5.68676C31.1201 4.87301 30.4437 4.0434 30.0746 3.70625C29.5297 3.20856 28.78 2.71977 28.1693 2.3039C27.2836 1.70001 25.9063 1.08029 24.8219 1.17081C24.5405 1.19402 24.347 1.38761 24.216 1.58529C24.0926 1.77273 24.0151 2.0267 23.9992 2.08086ZM23.9505 1.96634C23.912 1.91992 23.8623 1.90328 23.8112 1.90193C23.867 1.90309 23.9162 1.92766 23.9505 1.96634Z"
        fill="#87425F"
      />
      <path
        fill-rule="evenodd"
        clip-rule="evenodd"
        d="M23.8112 11.7013C23.925 11.5889 24.1561 11.491 24.4338 11.3949C25.1584 11.1442 26.1876 10.9463 26.6101 10.8216C26.9894 10.7092 28.5748 10.2223 29.6916 10.1405C29.9605 10.121 30.2 10.1243 30.3843 10.167C30.4762 10.1883 30.5524 10.2168 30.6012 10.2659C30.8041 10.4688 30.9304 10.7854 31.0157 11.1359C31.154 11.7042 31.1781 12.3619 31.1781 12.8416C31.1781 14.8109 30.9924 16.6797 30.5249 18.5488C30.3677 19.1788 30.0069 20.1607 29.439 20.539C29.3504 20.5984 29.3262 20.7181 29.3856 20.8069C29.4446 20.8955 29.5648 20.9197 29.6536 20.8603C30.2901 20.4361 30.7232 19.3496 30.8996 18.6427C31.3745 16.743 31.5644 14.843 31.5644 12.8418C31.5644 12.3367 31.5369 11.6431 31.3913 11.0452C31.2872 10.6185 31.121 10.2397 30.874 9.99331C30.7816 9.90047 30.6453 9.83124 30.4716 9.79101C30.2567 9.7413 29.9771 9.73296 29.6638 9.75559C28.5171 9.83973 26.8896 10.3363 26.5004 10.4516C26.0747 10.5779 25.0377 10.7775 24.3076 11.0305C23.9617 11.1498 23.6819 11.2872 23.5403 11.4265C23.4646 11.5017 23.4636 11.6237 23.5383 11.6999C23.6131 11.775 23.7356 11.776 23.8112 11.7013Z"
        fill="#87425F"
      />
      <path
        fill-rule="evenodd"
        clip-rule="evenodd"
        d="M21.1494 19.9367C21.615 20.2793 22.4441 20.4663 23.0106 20.6079C23.4981 20.73 23.9938 20.8201 24.4822 20.9379C24.8373 21.0238 25.2022 21.0629 25.563 21.1186C25.9665 21.1809 27.3229 21.5749 28.2815 21.6263C28.5485 21.6403 28.7876 21.6277 28.9729 21.5803C29.1242 21.5412 29.2444 21.4777 29.3284 21.3936C29.4036 21.318 29.4036 21.196 29.3284 21.1203C29.2526 21.0451 29.1307 21.0451 29.0549 21.1203C29.0001 21.1754 28.9104 21.2029 28.8022 21.2219C28.6603 21.247 28.4893 21.2501 28.3018 21.2404C27.3568 21.1899 26.0192 20.7975 25.6215 20.7367C25.272 20.6828 24.9177 20.6453 24.573 20.5621C24.0859 20.4447 23.5905 20.3545 23.1046 20.233C22.5808 20.1021 21.8094 19.942 21.3787 19.6253C21.2928 19.5623 21.1717 19.5808 21.1085 19.6665C21.045 19.7528 21.0636 19.8735 21.1494 19.9367Z"
        fill="#87425F"
      />
      <path
        fill-rule="evenodd"
        clip-rule="evenodd"
        d="M23.5854 13.2638C24.2311 12.9156 24.9678 12.8139 25.6794 12.676C26.6287 12.4926 27.581 12.2763 28.5238 12.0668C29.2456 11.9063 29.9968 11.9355 30.7186 11.8152C30.8239 11.7976 30.895 11.6982 30.8774 11.5927C30.8602 11.4879 30.7604 11.4163 30.6555 11.4339C29.9267 11.5556 29.1686 11.5278 28.4398 11.6893C27.5007 11.8982 26.5518 12.1137 25.6063 12.297C24.8566 12.4419 24.0827 12.557 23.402 12.9237C23.3082 12.9742 23.2734 13.0918 23.3241 13.1857C23.3745 13.2797 23.4916 13.3144 23.5854 13.2638Z"
        fill="#87425F"
      />
      <path
        fill-rule="evenodd"
        clip-rule="evenodd"
        d="M25.2583 1.20813C25.0206 1.47003 24.8859 1.77815 24.6961 2.06269C24.6371 2.15128 24.6614 2.27101 24.75 2.33059C24.8386 2.38958 24.9584 2.36539 25.0178 2.27661C25.1966 2.00832 25.3202 1.71453 25.5444 1.46753C25.6159 1.38861 25.6098 1.26657 25.5309 1.195C25.4519 1.12324 25.3299 1.1294 25.2583 1.20813Z"
        fill="#87425F"
      />
      <path
        fill-rule="evenodd"
        clip-rule="evenodd"
        d="M31.4337 5.84074C30.4025 7.10441 29.2058 8.0495 27.9762 9.09498C27.6688 9.35591 27.2729 9.73699 26.8578 10.0267C26.6021 10.2051 26.3406 10.3494 26.0889 10.3958C25.9845 10.4148 25.9149 10.5156 25.934 10.6206C25.9536 10.7254 26.0542 10.7947 26.1591 10.7757C26.4585 10.7204 26.7743 10.5561 27.0789 10.3436C27.5046 10.0465 27.9116 9.65692 28.2265 9.3896C29.4743 8.32884 30.6869 7.3675 31.7334 6.08527C31.8007 6.00267 31.7885 5.881 31.7059 5.81369C31.6233 5.74599 31.5016 5.75815 31.4337 5.84074Z"
        fill="#87425F"
      />
      <path
        fill-rule="evenodd"
        clip-rule="evenodd"
        d="M22.0713 18.9038C22.8758 19.1697 23.7375 19.2622 24.5694 19.3856C24.7329 19.4098 24.8834 19.4808 25.0323 19.5494C25.2147 19.633 25.3958 19.7133 25.5847 19.7407C26.8461 19.9208 28.0279 20.0467 29.2618 20.0467C29.3685 20.0467 29.455 19.9603 29.455 19.8535C29.455 19.7467 29.3685 19.6604 29.2618 19.6604C28.0459 19.6604 26.8822 19.5355 25.639 19.3581C25.4862 19.3363 25.3414 19.2663 25.1934 19.198C25.011 19.1148 24.8253 19.0332 24.6261 19.0034C23.816 18.8831 22.9761 18.7958 22.1926 18.5368C22.0914 18.5033 21.982 18.5581 21.9485 18.6594C21.9151 18.7608 21.9701 18.8703 22.0713 18.9038Z"
        fill="#87425F"
      />
      <path
        fill-rule="evenodd"
        clip-rule="evenodd"
        d="M31.4927 14.5424C32.0916 14.7188 32.7926 14.7128 33.4667 14.7834C34.0851 14.8478 34.6816 14.9764 35.1328 15.4277C35.4067 15.7016 35.5159 16.0122 35.5627 16.3445C35.6141 16.7109 35.5932 17.1022 35.6087 17.5038C35.688 19.5713 34.8974 22.7917 33.3837 24.3051C33.3084 24.3803 33.3084 24.5028 33.3837 24.578C33.4593 24.6537 33.5814 24.6537 33.6566 24.578C35.236 22.9993 36.0776 19.6456 35.9944 17.4889C35.9785 17.0738 35.9985 16.6695 35.9453 16.2908C35.8872 15.878 35.746 15.4946 35.4058 15.1544C34.8899 14.6385 34.2141 14.4733 33.5071 14.3991C32.8562 14.3314 32.1794 14.342 31.6014 14.172C31.4993 14.1418 31.3918 14.2008 31.362 14.3029C31.3317 14.4048 31.3902 14.5122 31.4927 14.5424Z"
        fill="#87425F"
      />
      <path
        fill-rule="evenodd"
        clip-rule="evenodd"
        d="M21.818 31.6862C22.2089 32.3952 22.5858 32.7745 22.9564 32.936C23.3272 33.0975 23.7011 33.0553 24.0987 32.8752C24.6237 32.6371 25.199 32.1445 25.8874 31.6358C26.9023 30.886 27.8683 30.1052 28.7792 29.24C29.1651 28.8732 29.6221 28.5394 30.0116 28.156C30.4275 27.7461 30.7664 27.28 30.8877 26.6751C30.9086 26.5707 30.8409 26.4685 30.7364 26.4476C30.632 26.4267 30.5299 26.4944 30.509 26.5989C30.4041 27.1248 30.1018 27.5246 29.7406 27.8805C29.353 28.2626 28.8974 28.595 28.5134 28.9595C27.6138 29.814 26.6597 30.5846 25.6584 31.3251C25.1019 31.7363 24.6231 32.1394 24.1838 32.3955C23.8009 32.619 23.4554 32.7321 23.1107 32.5816C22.7945 32.4437 22.49 32.1044 22.1567 31.4996C22.1051 31.4063 21.9877 31.3723 21.8944 31.4239C21.8008 31.4754 21.7664 31.5928 21.818 31.6862Z"
        fill="#87425F"
      />
      <path
        fill-rule="evenodd"
        clip-rule="evenodd"
        d="M25.8527 21.3347C25.8477 21.3328 25.8426 21.3307 25.8379 21.3281C25.7431 21.279 25.706 21.1624 25.7547 21.0678C25.7808 21.0177 25.8203 20.9859 25.8714 20.9703C25.9052 20.9596 25.9639 20.9494 26.0348 20.9893C26.0617 21.0045 26.1183 21.0515 26.1912 21.1272C26.3162 21.2571 26.518 21.486 26.7338 21.7158C27.089 22.0927 27.5035 22.4051 27.8565 22.7835C28.8689 23.8678 30.2271 24.9621 30.8981 26.3043C30.9459 26.3995 30.9069 26.5155 30.8119 26.5633C30.7167 26.6107 30.6007 26.5722 30.5529 26.4764C29.898 25.1663 28.5627 24.1056 27.5745 23.0468C27.2223 22.6694 26.8076 22.357 26.4534 21.9804C26.194 21.7053 25.9558 21.4299 25.8527 21.3347ZM26.0934 21.254C26.0702 21.2935 26.0354 21.3217 25.995 21.337C26.0377 21.3227 26.0702 21.2945 26.0934 21.254Z"
        fill="#87425F"
      />
      <path
        fill-rule="evenodd"
        clip-rule="evenodd"
        d="M24.2151 21.262C24.6919 21.8934 25.3315 22.4253 25.8431 23.039C26.9662 24.3867 27.9683 25.8002 29.0111 27.1906C29.0751 27.2755 29.1964 27.2931 29.2817 27.2291C29.3666 27.1651 29.3844 27.0438 29.3202 26.9588C28.2734 25.5629 27.2674 24.1443 26.1399 22.7914C25.6325 22.1823 24.9966 21.6555 24.5236 21.0293C24.4594 20.9444 24.3383 20.9272 24.2534 20.9912C24.1677 21.0558 24.151 21.1771 24.2151 21.262Z"
        fill="#87425F"
      />
      <path
        fill-rule="evenodd"
        clip-rule="evenodd"
        d="M22.9706 31.3859C22.9394 31.3682 22.8021 31.2889 22.752 31.2359C22.7023 31.1835 22.6804 31.1264 22.6773 31.0771C22.6694 30.9707 22.7493 30.8779 22.8555 30.8702C22.9358 30.8642 23.0087 30.9087 23.0425 30.9773C23.0648 30.9916 23.1181 31.0251 23.1437 31.0396C23.1822 31.0615 23.2101 31.0814 23.2217 31.0916C23.5258 31.3706 23.7519 31.7588 24.0484 32.0553C24.1236 32.1305 24.1236 32.253 24.0484 32.3282C23.9731 32.4034 23.8507 32.4034 23.7754 32.3282C23.4859 32.039 23.2657 31.6601 22.9706 31.3859Z"
        fill="#87425F"
      />
      <path
        fill-rule="evenodd"
        clip-rule="evenodd"
        d="M28.2763 23.3417C28.4421 23.3036 28.6218 23.3882 28.8059 23.4973C29.1587 23.7058 29.5139 24.0242 29.7948 24.1569C30.641 24.558 32.1952 25.1606 33.1716 24.9656C33.2761 24.9447 33.3437 24.8426 33.3229 24.7381C33.302 24.6337 33.2003 24.566 33.0958 24.5868C32.1873 24.7683 30.7478 24.1811 29.96 23.8079C29.6874 23.6789 29.3448 23.3669 29.0023 23.1646C28.7228 22.9998 28.4411 22.9079 28.1895 22.9659C28.086 22.9897 28.021 23.0932 28.0446 23.1971C28.0688 23.3009 28.1723 23.3657 28.2763 23.3417Z"
        fill="#87425F"
      />
      <path
        fill-rule="evenodd"
        clip-rule="evenodd"
        d="M27.2706 21.7286C27.7724 22.1046 29.2719 22.8224 30.6497 23.3338C31.5814 23.68 32.4588 23.9294 32.942 23.9294C33.0484 23.9294 33.1346 23.8431 33.1346 23.7363C33.1346 23.6295 33.0484 23.5431 32.942 23.5431C32.4867 23.5431 31.662 23.298 30.7843 22.9717C29.4473 22.475 27.9891 21.7842 27.5016 21.4192C27.4163 21.3556 27.2951 21.3728 27.2316 21.4583C27.1676 21.5438 27.1851 21.6649 27.2706 21.7286Z"
        fill="#87425F"
      />
      <path
        fill-rule="evenodd"
        clip-rule="evenodd"
        d="M31.6311 15.7882C32.3974 15.9042 33.2437 16.0306 33.9499 16.3838C34.4103 16.6139 34.7553 16.978 35.2087 17.2045C35.3039 17.2522 35.4199 17.2138 35.4677 17.1186C35.5157 17.0229 35.4766 16.907 35.3815 16.859C34.9279 16.6325 34.583 16.2685 34.1225 16.0383C33.3807 15.6675 32.4936 15.528 31.689 15.4066C31.5832 15.3903 31.4847 15.4632 31.469 15.5686C31.4533 15.6741 31.5256 15.7725 31.6311 15.7882Z"
        fill="#87425F"
      />
    </svg>
