<svg
      width="36"
      height="29"
      viewBox="0 0 36 29"
      fill="none"
      xmlns="http://www.w3.org/2000/svg"
    >
      <path
        fill-rule="evenodd"
        clip-rule="evenodd"
        d="M15.7797 8.74441C15.7797 8.74441 15.9335 7.69748 16.4794 7.27483C17.0251 6.85244 18.2483 7.0153 18.2483 7.0153C18.2483 7.0153 20.3261 4.62111 22.3433 3.10822C24.3608 1.59525 28.334 -0.423888 30.6527 0.306209C32.9711 1.03639 33.517 2.26142 33.9601 3.77088C34.4033 5.28033 34.0932 6.86409 33.7418 7.72278C33.3903 8.5813 32.8947 9.61516 31.6143 9.98025C30.3337 10.3453 29.6624 10.461 27.7712 10.8398C25.8801 11.2185 20.0052 11.2202 20.0052 11.2202L19.9145 9.27781L23.3934 8.13738C23.3934 8.13738 23.9272 8.2679 25.0783 8.19753C26.2294 8.12733 30.0292 7.53404 30.8889 7.02737C31.7484 6.52053 32.2239 5.32599 32.2239 5.32599C32.2239 5.32599 31.48 4.89228 29.92 5.40943C28.3602 5.92673 26.7959 6.21584 25.753 6.83979C24.7099 7.46366 19.9145 9.27781 19.9145 9.27781C19.9145 9.27781 20.2253 10.9271 19.783 11.6211C19.3404 12.3154 18.8491 12.54 18.3605 12.6516C17.8719 12.7632 17.7618 11.7082 17.7618 11.7082C17.7618 11.7082 17.0233 11.7858 15.885 11.8962C14.7469 12.0063 12.2702 12.2864 11.5339 12.1465C10.7979 12.0063 7.29403 11.9852 6.54223 12.2943C5.79027 12.6035 3.72079 13.9446 3.35101 14.5904C2.98106 15.2362 2.401 15.5365 2.88111 15.8003C3.36106 16.0639 6.5579 16.1048 7.94496 15.901C9.3321 15.6975 11.1369 15.2339 12.1208 14.828C13.1048 14.4218 13.8714 13.9839 14.3363 13.4702C14.8012 12.9563 15.2537 11.959 15.2537 11.959L17.7618 11.7081C17.7618 11.7081 18.2572 11.8487 17.9202 12.3278C17.583 12.8069 16.4865 14.3583 15.3249 15.3195C14.1632 16.281 12.8477 16.7306 12.0672 17.1096C11.2862 17.4887 7.78763 18.9251 4.85861 18.519C1.9296 18.113 1.83787 17.4371 1.23913 16.601C0.640391 15.7652 0.0295905 14.7786 0.185579 13.6028C0.341819 12.4268 0.987218 10.5891 3.37865 9.30964C5.77 8.03006 7.65803 8.1326 9.49588 8.19678C11.3339 8.26086 15.7797 8.74441 15.7797 8.74441Z"
        fill="#FF87AB"
      />
      <path
        fill-rule="evenodd"
        clip-rule="evenodd"
        d="M17.9202 12.3279C17.9202 12.3279 17.406 13.6329 17.3636 14.7392C17.3213 15.8456 16.7299 17.0604 16.4323 18.7056C16.1346 20.3511 15.652 21.0912 15.1796 22.4666C14.7072 23.842 14.245 24.659 13.4701 25.979C12.695 27.2989 11.8309 28.2397 11.5235 28.3453C11.216 28.451 11.1312 28.764 10.4945 28.1261C9.85752 27.4879 9.44811 26.7882 8.81017 26.6222C8.17222 26.4563 7.12647 26.1696 6.62608 25.9173C6.12586 25.6651 5.77217 25.377 6.4391 24.9794C7.10603 24.5817 9.93166 22.4269 10.6427 21.4578C11.3538 20.4889 13.2251 18.0774 13.6479 17.3914C14.071 16.7054 14.2643 16.0286 14.2643 16.0286C14.2643 16.0286 15.4908 15.3681 16.1652 14.4632C16.8396 13.5584 17.9202 12.3279 17.9202 12.3279Z"
        fill="#FF87AB"
      />
      <path
        fill-rule="evenodd"
        clip-rule="evenodd"
        d="M20.1292 11.1682C20.1292 11.1682 21.9751 11.2486 23.1049 11.1867C24.2344 11.1249 27.222 10.9263 27.222 10.9263C27.222 10.9263 28.4155 11.5315 29.8075 11.4057C31.1994 11.2798 32.8728 10.8791 33.3948 10.6752C33.9165 10.4716 34.5809 9.5823 35.0656 10.0956C35.5503 10.6091 36.0479 12.1096 35.8164 13.0875C35.5847 14.0657 35.5761 14.4618 34.1616 14.8311C32.7472 15.2007 31.4037 15.3386 29.7365 15.2783C28.0695 15.218 26.7463 15.186 24.9056 14.5915C23.0651 13.997 21.6215 13.2934 21.2083 12.9143C20.795 12.5351 19.7708 11.5153 19.7708 11.5153L20.1292 11.1682Z"
        fill="#FF87AB"
      />
      <path
        fill-rule="evenodd"
        clip-rule="evenodd"
        d="M15.8249 8.68822C15.8693 8.82194 15.9735 8.95082 16.1025 9.07266C16.2463 9.20969 16.4252 9.33756 16.5167 9.47478C17.2114 10.5169 17.5434 11.2607 17.7229 12.5174C17.7379 12.6234 17.8364 12.6971 17.9429 12.6822C18.049 12.6668 18.1227 12.5687 18.1079 12.4622C17.9187 11.1398 17.5717 10.3563 16.8406 9.25933C16.7505 9.12385 16.5937 8.99213 16.4454 8.85958C16.337 8.76343 16.2292 8.67133 16.1936 8.56486C16.1595 8.46306 16.0494 8.40839 15.9474 8.44206C15.8454 8.47632 15.7908 8.58642 15.8249 8.68822Z"
        fill="#87425F"
      />
      <path
        fill-rule="evenodd"
        clip-rule="evenodd"
        d="M16.13 8.30444C16.1341 7.82989 16.5103 7.46727 16.9605 7.27437C17.42 7.07778 17.9691 7.05106 18.3302 7.30099C19.0946 7.83023 19.7924 9.24475 19.8214 10.4665C19.8395 11.2387 19.5855 11.9385 18.8591 12.2497C18.7532 12.2955 18.6405 12.3673 18.5256 12.429C18.4462 12.4716 18.3668 12.512 18.2864 12.512C18.179 12.512 18.0921 12.5994 18.0921 12.7065C18.0921 12.8139 18.179 12.9009 18.2864 12.9009C18.4018 12.9009 18.52 12.8644 18.6358 12.8089C18.7656 12.7468 18.8931 12.6581 19.0122 12.6071C19.8948 12.2293 20.2321 11.3952 20.2101 10.4572C20.1778 9.11281 19.3926 7.56422 18.5518 6.98165C18.0916 6.6636 17.3932 6.6667 16.8075 6.91721C16.2129 7.1718 15.7471 7.67435 15.7415 8.3013C15.7405 8.40836 15.8269 8.49611 15.9339 8.49709C16.0412 8.49767 16.129 8.41169 16.13 8.30444Z"
        fill="#87425F"
      />
      <path
        fill-rule="evenodd"
        clip-rule="evenodd"
        d="M18.3135 7.05283C20.8538 4.3276 24.1338 1.45878 27.8533 0.590853C29.8811 0.11767 31.4153 0.502985 32.4401 1.47835C33.4715 2.45975 33.9836 4.02607 33.9836 5.87384C33.9836 5.98129 34.0704 6.0683 34.178 6.0683C34.2855 6.0683 34.3723 5.98148 34.3723 5.87384C34.3723 3.90481 33.8077 2.24316 32.7083 1.19674C31.6025 0.144296 29.9527 -0.298148 27.7651 0.212017C23.9728 1.09726 20.6196 4.0094 18.0291 6.78757C17.9561 6.86601 17.9604 6.98935 18.0388 7.06215C18.1172 7.13553 18.2405 7.13089 18.3135 7.05283Z"
        fill="#87425F"
      />
      <path
        fill-rule="evenodd"
        clip-rule="evenodd"
        d="M20.139 9.38387C23.1821 8.54203 25.8243 6.87156 28.7697 5.84053C30.3 5.30525 32.2108 5.05435 33.5589 6.17726C33.6411 6.24597 33.764 6.23508 33.8326 6.15255C33.9013 6.07041 33.89 5.94763 33.8075 5.87893C32.3527 4.66667 30.2931 4.89557 28.6412 5.47386C25.7038 6.50197 23.0699 8.1697 20.0354 9.00979C19.932 9.03821 19.8714 9.14526 19.8998 9.24901C19.9282 9.35217 20.0359 9.41287 20.139 9.38387Z"
        fill="#87425F"
      />
      <path
        fill-rule="evenodd"
        clip-rule="evenodd"
        d="M31.8589 5.85633C31.8793 5.77127 31.9561 5.70825 32.0476 5.70825C32.1546 5.70825 32.242 5.79497 32.242 5.90261C32.242 5.94738 32.2196 6.02274 32.1629 6.1002C32.1139 6.16794 32.0037 6.29686 31.9971 6.30445C31.6557 6.98181 30.94 7.20737 30.1618 7.48202C28.6969 7.99919 24.9633 8.49866 23.4904 8.46674C23.3829 8.46499 23.2981 8.37564 23.3002 8.26858C23.3025 8.16114 23.3913 8.07607 23.4984 8.0784C24.9415 8.10916 28.5977 7.622 30.0324 7.11572C30.3874 6.99037 30.7312 6.88158 31.0247 6.72605C31.29 6.58552 31.5122 6.40558 31.652 6.12568C31.6771 6.07585 31.8371 5.88299 31.8589 5.85633Z"
        fill="#87425F"
      />
      <path
        fill-rule="evenodd"
        clip-rule="evenodd"
        d="M20.1635 11.3577C20.7605 11.4735 21.4863 11.3497 22.0962 11.3497C23.7736 11.3497 25.3124 11.3507 26.9811 11.0817C28.0485 10.9092 29.0707 10.7186 30.1082 10.4112C30.6586 10.2477 31.3644 10.2294 31.8683 9.97738C33.2268 9.29806 34.1593 7.65666 34.3676 6.19643C34.3829 6.09035 34.3091 5.99187 34.2027 5.97688C34.0966 5.96151 33.9981 6.03522 33.9831 6.1413C33.7912 7.48572 32.9451 9.00499 31.6945 9.63C31.2091 9.87292 30.5276 9.88179 29.9973 10.0387C28.9766 10.3414 27.9699 10.5283 26.9189 10.6978C25.2718 10.9637 23.752 10.9613 22.0962 10.9613C21.5099 10.9613 20.8118 11.0879 20.2372 10.9764C20.1321 10.9559 20.0299 11.025 20.0097 11.1301C19.9891 11.2349 20.0578 11.337 20.1635 11.3577Z"
        fill="#87425F"
      />
      <path
        fill-rule="evenodd"
        clip-rule="evenodd"
        d="M2.23185 17.4979C2.22582 17.2976 2.21029 17.0921 2.20951 17.0588C2.18986 16.55 2.24865 16.1632 2.41975 15.6787C2.85984 14.4311 4.01166 13.2533 5.17272 12.6456C6.84239 11.7716 8.61697 11.7524 10.4566 11.8258C11.4136 11.8641 12.3743 11.8262 13.3179 11.9836C13.7126 12.049 14.1999 11.8959 14.5821 11.8285C15.3553 11.6921 16.6002 11.5375 17.3863 11.5375C17.4932 11.5375 17.5806 11.6243 17.5806 11.732C17.5806 11.8394 17.4932 11.9264 17.3863 11.9264C16.6189 11.9264 15.4044 12.0782 14.6497 12.2113C14.2283 12.2861 13.6893 12.4393 13.2538 12.3669C12.326 12.2124 11.382 12.2521 10.4411 12.2141C8.67019 12.1436 6.95982 12.1487 5.35283 12.9899C4.27274 13.5558 3.19596 14.6475 2.78585 15.8082C2.63305 16.2421 2.57966 16.5884 2.59757 17.0438C2.59952 17.0896 2.62521 17.4469 2.6219 17.6972C2.61995 17.8407 2.60151 17.9561 2.57932 18.0032C2.55227 18.0622 2.51256 18.0933 2.47791 18.1107C2.42886 18.1354 2.37612 18.1411 2.31948 18.122C2.28269 18.1097 2.19201 18.0453 2.08748 17.9281C1.80388 17.6104 1.24562 16.8573 1.14324 16.7294C0.790544 16.2884 0.32199 15.7554 0.155568 15.2009C-0.427978 13.2562 0.704456 10.8027 2.31339 9.66698C5.60173 7.34583 8.84555 7.96987 12.5707 8.28013C13.5167 8.35916 15.0512 8.28437 15.8238 8.62247C15.9219 8.66549 15.9667 8.78032 15.9238 8.87842C15.8808 8.97652 15.7664 9.02131 15.6679 8.97888C14.9251 8.65382 13.4479 8.74295 12.538 8.66724C8.90784 8.36495 5.74233 7.72263 2.53769 9.98461C1.05119 11.0334 -0.0106421 13.293 0.527942 15.0892C0.681128 15.5984 1.12262 16.0814 1.4469 16.4865C1.53254 16.5934 1.93852 17.14 2.23185 17.4979Z"
        fill="#87425F"
      />
      <path
        fill-rule="evenodd"
        clip-rule="evenodd"
        d="M17.2234 12.6577C15.7098 15.0335 13.923 16.3145 11.1804 17.3119C9.87243 17.7874 8.48735 18.2868 7.08823 18.3863C6.45797 18.4317 5.31869 18.5031 4.31938 18.3629C3.69029 18.2751 3.11555 18.1087 2.78446 17.778C2.70874 17.7023 2.58551 17.7023 2.50979 17.778C2.43407 17.8538 2.43407 17.977 2.50979 18.0527C2.89013 18.4331 3.54219 18.6465 4.2655 18.7478C5.29459 18.8922 6.46713 18.8208 7.11608 18.7739C8.5512 18.6717 9.97269 18.1642 11.3134 17.677C14.1457 16.647 15.9882 15.3203 17.5518 12.8664C17.6092 12.7757 17.5825 12.6556 17.492 12.5982C17.4015 12.5406 17.281 12.5672 17.2234 12.6577Z"
        fill="#87425F"
      />
      <path
        fill-rule="evenodd"
        clip-rule="evenodd"
        d="M3.04886 16.0942C2.99183 16.1796 2.87694 16.2059 2.78759 16.1529C2.69553 16.0978 2.6658 15.9783 2.72049 15.8862C2.79465 15.7619 2.93437 15.6965 3.11558 15.6975C3.36317 15.6988 3.71451 15.8389 3.85368 15.8619C4.90106 16.0365 5.98916 15.9363 7.03558 15.8166C8.76267 15.619 10.2462 15.256 11.8616 14.61C12.3258 14.4241 12.9168 14.3106 13.3265 14.0126C14.0422 13.4921 14.5639 12.7477 15.0807 12.0586C15.1453 11.9732 15.2671 11.9552 15.3526 12.0198C15.4384 12.0843 15.4558 12.2063 15.3919 12.2916C14.8524 13.011 14.3025 13.7837 13.5551 14.327C13.1212 14.6433 12.4983 14.7741 12.0061 14.9713C10.357 15.6303 8.84306 16.0013 7.07996 16.2025C5.99754 16.3263 4.87262 16.4258 3.78981 16.2456C3.67633 16.2269 3.41575 16.1227 3.19561 16.0928C3.15318 16.0867 3.11309 16.084 3.07747 16.0881C3.06852 16.0889 3.05548 16.0922 3.04886 16.0942Z"
        fill="#87425F"
      />
      <path
        fill-rule="evenodd"
        clip-rule="evenodd"
        d="M6.20034 25.5029L6.481 25.7237C6.7646 25.9462 7.11163 26.0321 7.46706 26.0998C7.86608 26.1755 8.27625 26.2274 8.64101 26.3737C9.13152 26.5699 9.52254 26.9604 9.90697 27.3464C10.2503 27.6911 10.5863 28.0336 11.0141 28.1765C11.1159 28.2102 11.1712 28.3204 11.1369 28.4222C11.1028 28.524 10.9931 28.5792 10.8913 28.545C10.4082 28.3838 10.0191 28.0097 9.63134 27.6204C9.28468 27.2724 8.93898 26.9112 8.49655 26.7342C8.15456 26.5974 7.76875 26.5525 7.39444 26.4815C6.97673 26.4021 6.57329 26.2906 6.24064 26.0294C6.19859 25.9963 5.90328 25.802 5.80421 25.6687C5.73374 25.5729 5.72813 25.4795 5.75013 25.4135C5.75577 25.3958 5.76824 25.3664 5.79822 25.3331C5.81924 25.3098 5.872 25.2644 5.94772 25.2066C6.2574 24.9707 7.01243 24.4568 7.09516 24.3928C7.88697 23.7798 8.68337 23.1075 9.41446 22.4227C11.2718 20.6813 12.6713 18.4479 14.0332 16.3191C14.0912 16.2286 14.2114 16.2023 14.3019 16.2598C14.392 16.3176 14.4186 16.4378 14.3608 16.5284C12.9817 18.6842 11.5616 20.9429 9.68039 22.7064C8.94093 23.3997 8.1347 24.0798 7.33295 24.7001C7.2512 24.7634 6.51314 25.2656 6.20034 25.5029Z"
        fill="#87425F"
      />
      <path
        fill-rule="evenodd"
        clip-rule="evenodd"
        d="M17.3442 13.053C17.524 14.4198 16.97 15.7227 16.6117 17.0177C16.4057 17.7628 16.3085 18.5303 16.1096 19.2778C15.8052 20.4199 15.3187 21.498 14.887 22.5935C14.5006 23.5741 14.2306 24.6462 13.6056 25.5118C13.4637 25.7086 12.689 26.9503 12.0663 27.6771C11.9168 27.8519 11.7783 27.9953 11.6599 28.0818C11.6169 28.1131 11.5852 28.1415 11.5548 28.1415C11.4479 28.1415 11.3605 28.2284 11.3605 28.336C11.3605 28.4429 11.4479 28.5302 11.5548 28.5302C11.6282 28.5302 11.7166 28.5051 11.8131 28.4467C11.9649 28.355 12.157 28.1691 12.3616 27.9301C12.9917 27.1943 13.7771 25.9387 13.9206 25.7395C14.5649 24.8477 14.8505 23.7462 15.2486 22.7362C15.6854 21.6268 16.1769 20.5346 16.4852 19.3784C16.6841 18.6319 16.7805 17.8658 16.9864 17.1215C17.3584 15.777 17.9164 14.4213 17.7296 13.0022C17.7155 12.8961 17.6178 12.8214 17.5113 12.835C17.4049 12.8488 17.3302 12.9469 17.3442 13.053Z"
        fill="#87425F"
      />
      <path
        fill-rule="evenodd"
        clip-rule="evenodd"
        d="M19.9784 11.8449C20.8486 12.9843 22.3364 13.8666 24.0248 14.4748C26.532 15.3788 29.4784 15.6815 31.4451 15.3671C32.029 15.2737 32.668 15.242 33.2814 15.1326C33.9274 15.0182 34.545 14.8182 35.0515 14.3959C35.1342 14.3275 35.1453 14.205 35.0766 14.1226C35.0075 14.0399 34.885 14.0287 34.8029 14.0972C34.3488 14.4756 33.7925 14.6471 33.2136 14.7499C32.602 14.8583 31.9654 14.8901 31.3838 14.9831C29.4681 15.2895 26.5988 14.9895 24.1566 14.1095C22.5449 13.5285 21.1178 12.6964 20.2873 11.609C20.2224 11.5235 20.1004 11.5072 20.015 11.5726C19.9299 11.6376 19.9136 11.7594 19.9784 11.8449Z"
        fill="#87425F"
      />
      <path
        fill-rule="evenodd"
        clip-rule="evenodd"
        d="M35.4522 13.7531C35.4649 13.7317 35.505 13.6614 35.5223 13.6069C35.5905 13.392 35.6111 13.1061 35.6111 13.0174C35.6111 12.6522 35.4933 11.436 35.2453 10.704C35.197 10.5611 35.1443 10.4378 35.0852 10.3473C35.0525 10.2978 35.0277 10.2552 34.9894 10.2472C34.6987 10.1894 34.385 10.3356 34.0724 10.5018C33.7043 10.6974 33.3414 10.9306 33.0237 11.0213C31.4438 11.4725 29.2841 11.8411 27.6814 11.3603C27.5786 11.3296 27.5203 11.2209 27.5512 11.1179C27.582 11.0157 27.6904 10.9571 27.7932 10.9881C29.3309 11.4492 31.4019 11.0805 32.9168 10.6474C33.2765 10.5447 33.6946 10.2419 34.1123 10.0467C34.4379 9.89426 34.764 9.80556 35.0657 9.8659C35.1679 9.88653 35.2689 9.95054 35.3584 10.0621C35.4528 10.1802 35.5396 10.3607 35.6136 10.5793C35.8752 11.3511 36 12.6324 36 13.0172C36 13.1433 35.9626 13.5965 35.8422 13.8571C35.7571 14.041 35.6229 14.1397 35.4795 14.1397C35.372 14.1397 35.2852 14.0527 35.2852 13.9453C35.285 13.8476 35.3574 13.7667 35.4522 13.7531Z"
        fill="#87425F"
      />
    </svg>
