<svg
  width="20"
  height="20"
  viewBox="0 0 37 37"
  fill="none"
  xmlns="http://www.w3.org/2000/svg"
>
  <g clip-path="url(#clip0_4002_2)">
    <path
      d="M28.3001 14.6L25.9001 11.9L22.3001 12.3C21.2001 12.4 20.5001 11.3 21.0001 10.3L23.0001 7.2L21.5001 3.9C21.1001 2.9 21.9001 1.9 23.0001 2.1L26.5001 3L29.2001 0.6C30.0001 -0.1 31.3001 0.4 31.4001 1.5L31.6001 5L34.7001 6.8C35.6001 7.3 35.6001 8.7 34.6001 9.1L31.3001 10.5L30.5001 14C30.3001 15.1 29.0001 15.4 28.3001 14.6Z"
      fill="#FFCC00"
    />
    <path
      d="M15.5 24.1L11.2 23.3L8.10005 26.3C7.20005 27.2 5.60005 26.7 5.50005 25.4L5.00005 21.1L1.20005 19.1C4.88162e-05 18.4 4.88162e-05 16.8 1.20005 16.2L5.10005 14.4L5.80005 10.1C6.00005 8.8 7.60005 8.3 8.50005 9.3L11.5 12.5L15.8 11.9C17.1 11.7 18 13.1 17.4 14.2L15.3 18L17.2001 21.9C17.8001 23 16.8 24.3 15.5 24.1Z"
      fill="#FFCC00"
    />
    <path
      d="M28.5999 35.8L25.3999 34.2L22.2999 36C21.3999 36.5 20.1999 35.7 20.3999 34.7L20.8999 31.1L18.2999 28.6C17.4999 27.9 17.8999 26.5 18.9999 26.4L22.5999 25.8L24.0999 22.5C24.5999 21.5 25.8999 21.5 26.3999 22.4L28.0999 25.6L31.6999 26C32.7999 26.1 33.1999 27.4 32.4999 28.2L29.9999 30.8L30.6999 34.3C30.5999 35.4 29.4999 36.3 28.5999 35.8Z"
      fill="#FFCC00"
    />
  </g>
  <defs>
    <clipPath id="clip0_4002_2">
      <rect width="36.1" height="36.1" fill="white" />
    </clipPath>
  </defs>
</svg>